<svg width="400" height="389" viewBox="0 0 400 389" fill="none" xmlns="http://www.w3.org/2000/svg">
<path d="M190.705 80L256.16 87.2727L270.705 152.727L241.614 181.818L197.978 145.455L190.705 80Z" fill="#86E2FA"/>
<path d="M192.727 98.1818L160 94.5455L168.887 174.545L212.524 210.909L241.614 181.818L197.978 145.455L192.727 98.1818Z" fill="#47B6E5"/>
<path d="M162.022 112.727L129.294 109.091L139.796 203.636L183.433 240L212.524 210.909L168.887 174.545L162.022 112.727Z" fill="#3063BC"/>
<path d="M197.978 145.455L192.727 98.1818L163.636 127.273L168.887 174.545L212.524 210.909L241.614 181.818L197.978 145.455Z" fill="#3063BC"/>
<path d="M168.887 174.545L162.022 112.727L132.931 141.818L139.796 203.636L183.433 240L212.524 210.909L168.887 174.545Z" fill="#00318A"/>
<path d="M226.409 286.951L241.572 288.635L228.094 302.114L226.409 286.951Z" fill="#47B6E5"/>
<path d="M94.3629 302.239C96.6484 302.239 98.7066 301.266 100.145 299.711L104.734 304.3C102.12 307.027 98.4396 308.726 94.3629 308.726C86.4305 308.726 80 302.295 80 294.363C80 286.43 86.4305 280 94.3629 280C98.4544 280 102.146 281.711 104.762 284.456L100.173 289.045C98.7331 287.473 96.6632 286.486 94.3629 286.486C90.0129 286.486 86.4865 290.013 86.4865 294.363C86.4865 298.713 90.0129 302.239 94.3629 302.239Z" fill="#0B0B0B"/>
<path fill-rule="evenodd" clip-rule="evenodd" d="M159.923 294.363C159.923 302.295 153.492 308.726 145.56 308.726C137.627 308.726 131.197 302.295 131.197 294.363C131.197 286.43 137.627 280 145.56 280C153.492 280 159.923 286.43 159.923 294.363ZM153.436 294.363C153.436 298.713 149.91 302.239 145.56 302.239C141.21 302.239 137.683 298.713 137.683 294.363C137.683 290.013 141.21 286.486 145.56 286.486C149.91 286.486 153.436 290.013 153.436 294.363Z" fill="#0B0B0B"/>
<path fill-rule="evenodd" clip-rule="evenodd" d="M195.598 307.799H206.255C213.675 307.799 219.691 301.784 219.691 294.363C219.691 286.942 213.675 280.927 206.255 280.927H195.598V307.799ZM202.085 301.313H206.255C210.093 301.313 213.205 298.201 213.205 294.363C213.205 290.525 210.093 287.413 206.255 287.413H202.085V301.313Z" fill="#0B0B0B"/>
<path d="M109.653 280.927L116.139 281.438V301.313H126.332V307.799H109.653V280.927Z" fill="#0B0B0B"/>
<path d="M182.394 280.927V296.68C182.394 299.238 180.319 301.313 177.761 301.313C175.202 301.313 173.127 299.238 173.127 296.68V281.438L166.641 280.927V296.68C166.641 302.821 171.619 307.799 177.761 307.799C183.902 307.799 188.88 302.821 188.88 296.68V281.438L182.394 280.927Z" fill="#0B0B0B"/>
<path d="M254.208 307.799H247.722V280.927L254.208 281.438V307.799Z" fill="#0B0B0B"/>
<path fill-rule="evenodd" clip-rule="evenodd" d="M257.915 307.799H264.402L266.598 302.703H277.494L279.691 307.799H286.178L274.774 281.343L269.498 280.927L257.915 307.799ZM272.046 290.063L274.698 296.216H269.394L272.046 290.063Z" fill="#0B0B0B"/>
<path d="M320 307.799V281.657L310.734 280.927L304.942 297.722L299.41 281.678L289.884 280.927V307.799H296.371V291.676L301.93 307.799H307.954L313.514 291.676V307.799H320Z" fill="#0B0B0B"/>
</svg>
