<?xml version="1.0" encoding="UTF-8"?> <svg xmlns="http://www.w3.org/2000/svg" viewBox="0 0 199.55 199.55"><defs><style>.cls-1{fill:#c42523;}.cls-2{fill:#5b4e52;}.cls-3,.cls-8{fill:#231815;}.cls-4{fill:#ea5504;}.cls-5{fill:#bf172a;}.cls-6{fill:#b83a03;}.cls-7{fill:#e71f10;}.cls-8{fill-rule:evenodd;}.cls-9{fill:#f39827;}.cls-10{fill:none;}</style></defs><g id="Capa_2" data-name="Capa 2"><g id="Capa_1-2" data-name="Capa 1"><path class="cls-1" d="M22.66,174H20.17v5.24h-1.4v-11.5h4c1.84,0,3.43.9,3.43,3.09S24.54,174,22.66,174m-.23-5.17H20.17v4h2.34a2.08,2.08,0,0,0,2.33-2c0-1.36-1.09-2-2.41-2m11.76,10.41-.71-2.15H30l-.72,2.15H27.9L31,170.7h1.58l3.09,8.52Zm-2.45-7.43-1.43,4.3h2.9Zm10.52,7.65a3.3,3.3,0,0,0,3.54-3.58V170.7H44.52v5.39a2.17,2.17,0,0,1-2.26,2.37,2.28,2.28,0,0,1-2.34-2.37V170.7H38.64v5.16a3.36,3.36,0,0,0,3.62,3.58m13.42-.22v-1H51.35v-7.5H50.06v8.52Zm12.52.22c3.13,0,4-2.18,4-3.24a3.16,3.16,0,0,0-2.23-3l-2.15-.9c-.75-.34-1.58-.61-1.58-1.77a1.94,1.94,0,0,1,2.19-1.93,3.26,3.26,0,0,1,2.71,1.17l.64-1a4.22,4.22,0,0,0-3.35-1.28c-1.7,0-3.59,1.1-3.59,3.09a2.7,2.7,0,0,0,1.81,2.53l2.91,1.28a1.86,1.86,0,0,1,1.28,1.85,2.3,2.3,0,0,1-2.49,2,3.71,3.71,0,0,1-3-1.39L64.65,178a4.14,4.14,0,0,0,3.55,1.47m13.08-.22-.72-2.15h-3.5l-.72,2.15H75l3.1-8.52h1.58l3.09,8.52Zm-2.49-7.43-1.43,4.3h2.9Zm10.63,7.43h-3.2V170.7h3.2c1.44,0,2.83.68,2.83,2.15a1.93,1.93,0,0,1-1.66,1.92c1.13.26,1.89.68,1.89,2,0,1.59-1.32,2.42-3.06,2.42m-.3-7.54H87.5v2.6h1.7c1,0,1.77-.3,1.77-1.4,0-.9-.83-1.2-1.85-1.2m.19,3.58H87.5v3h1.81c.94,0,1.92-.27,1.92-1.51,0-1.06-.86-1.47-1.92-1.47m12.4,4-.71-2.15H97.49l-.72,2.15H95.42l3.09-8.52h1.58l3.09,8.52Zm-2.45-7.43-1.43,4.3h2.9Zm12.59-.08v-1h-7.16v1h2.94v7.51h1.28v-7.51Zm3.59,7.51h1.28V170.7h-1.28Zm11.42,0v-1h-4.45v-2.94h4v-1h-4v-2.6h4.3v-1h-5.54v8.52h5.69Zm8.75,0-1.89-2.64c-.57-.79-.87-1.21-1.39-1.21h-.53v3.85h-1.28V170.7h3.16c1.4,0,2.87.75,2.87,2.26s-1.36,2.26-2.75,2.37a2.25,2.25,0,0,1,.79.61c.19.22.34.45.41.52l2.08,2.79h-1.47Zm-2.23-7.54h-1.54v2.71h1c1.89,0,2.45-.45,2.45-1.43s-.94-1.28-1.92-1.28"></path><path class="cls-2" d="M23.64,144.65c-2.49,0-4.79-.91-4.79-4.87v-6.93H21V140c0,1.85.86,3.05,2.64,3.05s2.6-1.16,2.6-3.05v-7.12h2.15v6.93c0,3.7-2.38,4.87-4.75,4.87m19.71-.23V132.88H41.24v8.6l-4.82-8.6H33.63v11.54h2.11v-8.6l4.82,8.6Zm5.36,0h2.15V132.88H48.71Zm17.75-11.57H64.13l-3.36,9.38-3.35-9.38H55l4.6,11.53h2.26Zm12.11,11.57v-1.73H72.76v-3.47h5.13v-1.66H72.76v-3h5.58v-1.69H70.61v11.53h8Zm13.76,0-3-4.22a3.6,3.6,0,0,0-.91-1,3.24,3.24,0,0,0,2.94-3.09c0-2.15-1.84-3.21-3.84-3.21H83.13v11.54h2.15v-5h.52c.53,0,1.06.6,1.66,1.51l2.34,3.47h2.53Zm-5.21-9.92c1.4,0,2.08.72,2.08,1.59s-.42,1.77-2.08,1.77H85.28V134.5h1.84m12.63,10.15c3.47,0,4.41-2.23,4.41-3.43a3.24,3.24,0,0,0-2.37-3.13l-2.26-1c-.72-.31-1.47-.68-1.47-1.51,0-.64.56-1.4,1.84-1.4a3.41,3.41,0,0,1,2.91,1.47l.9-1.43a5,5,0,0,0-3.81-1.58c-1.84,0-4,1.09-4,3.31a3.15,3.15,0,0,0,2.19,2.91l2.26,1c.9.37,1.58.79,1.58,1.69s-.68,1.59-2.11,1.59a4,4,0,0,1-3.24-1.59L95.64,143a5.43,5.43,0,0,0,4.11,1.63m9-.23h2.15V132.88h-2.15Zm16.18-9.84v-1.73H115v1.73h3.88v9.84h2.15v-9.84Zm12.1,9.84v-1.73h-5.81v-3.47h5.13v-1.66h-5.13v-3h5.58v-1.69h-7.73v11.53h8Zm-106.81,7v-2H18.81v2H23.3v11.31h2.49V151.43ZM37.36,163c3.35,0,5.84-2.3,5.84-7,0-4.94-2.67-6.82-5.84-6.82-3,0-5.84,2.15-5.84,6.82,0,4,1.84,7,5.84,7m0-12.07c2.6,0,3.28,2.23,3.28,5.05s-.72,5.24-3.28,5.24-3.28-2.56-3.28-5.24c0-2.41.79-5.05,3.28-5.05M51.12,163c2.75,0,5.47-1.36,5.47-5.58v-8H54.1v8.22c0,2.23-1,3.55-3,3.55s-3-1.44-3-3.55v-8.22H45.54v8c0,4.56,2.75,5.58,5.58,5.58m17.61-.27v-2h-6.6V149.4H59.64v13.34Zm7,.27c3.36,0,5.84-2.3,5.84-7,0-4.94-2.67-6.82-5.84-6.82-3,0-5.84,2.15-5.84,6.82,0,4,1.81,7,5.84,7m0-12.07c2.6,0,3.28,2.23,3.28,5.05s-.72,5.24-3.28,5.24-3.28-2.56-3.28-5.24c0-2.41.79-5.05,3.28-5.05M89.46,163c2.75,0,5.47-1.36,5.47-5.58v-8H92.48v8.22c0,2.23-1,3.55-3,3.55s-3-1.44-3-3.55v-8.22H83.92v8c0,4.56,2.68,5.58,5.54,5.58m12.22,0c4,0,5.08-2.61,5.08-4,0-2-1.2-3-2.71-3.62l-2.64-1.13c-.83-.34-1.66-.79-1.66-1.74,0-.75.68-1.62,2.15-1.62a4.09,4.09,0,0,1,3.36,1.66l1-1.66a5.81,5.81,0,0,0-4.41-1.81c-2.15,0-4.67,1.25-4.67,3.81a3.64,3.64,0,0,0,2.52,3.32l2.64,1.13c1,.45,1.81.94,1.81,2,0,.86-.79,1.81-2.45,1.81A4.64,4.64,0,0,1,98,159.35L97,161a5.83,5.83,0,0,0,4.72,2m16.58-.27v-2h-6.71v-4h5.92v-1.89h-5.92v-3.5H118v-1.93h-8.94v13.31Zm5.85,0h2.48V149.43h-2.48Zm5.2,0h2.49V149.43h-2.49Zm5.24,0H137V149.43h-2.49Zm0-33.17h-2.07l-1.21,2.37h1.36Z"></path><path class="cls-3" d="M148.46,170.81c0,1.66.79,1.92,1.4,1.92s1.39-.26,1.39-2V168.4c0-.15.08-.19.15-.19a2.2,2.2,0,0,1,.49,0c0,.3,0,.79,0,1.43v1.13c0,2.27-1.2,2.57-2.07,2.57-1.17,0-2-.57-2-2.41v-1.63a5.78,5.78,0,0,0,0-1,2.9,2.9,0,0,1,.57-.08c.11,0,.15,0,.15.42Zm6.75,2.22c0,.08,0,.12.11.12a2.82,2.82,0,0,0,.61-.08c0-.19,0-.53,0-1V171c0-.76-.27-1.43-1.17-1.43a1.62,1.62,0,0,0-1.17.6c0-.23-.07-.6-.34-.6a.53.53,0,0,0-.41.26v0a.63.63,0,0,1,.15.49v1.35a13.39,13.39,0,0,1,0,1.47,3.14,3.14,0,0,0,.53,0c.11,0,.15,0,.15-.19v-2.38a1.22,1.22,0,0,1,.9-.49c.46,0,.76.3.76.91Zm2.11-5.09a.42.42,0,0,0-.41.42.34.34,0,0,0,.37.38.39.39,0,0,0,.38-.42.33.33,0,0,0-.34-.38Zm.34,2.15c0-.45,0-.49-.11-.49a3.53,3.53,0,0,0-.61.08c0,.15,0,.41,0,.9v1.36a11.65,11.65,0,0,1,0,1.24,2.49,2.49,0,0,0,.53,0c.11,0,.15,0,.15-.19v-2.87Zm1.17-.52a1.59,1.59,0,0,0-.57.18c.12.23.23.49.49,1.14.49,1.24.72,1.84.87,2.33a2,2,0,0,0,.41-.07.37.37,0,0,0,.19-.23c.49-1.24.8-2,1.13-2.75.12-.3.16-.42,0-.49a.9.9,0,0,0-.41-.11c-.23.71-.76,2-1,2.79-.3-1-.79-2.19-.94-2.61-.08-.15-.12-.18-.19-.18Zm5.77,2.9a2.44,2.44,0,0,1-.91.19,1.17,1.17,0,0,1-1.2-1.25c.56,0,1.35,0,1.58,0s.64-.15.68-.26,0-.15,0-.23a1.29,1.29,0,0,0-1.32-1.32,1.73,1.73,0,0,0-1.66,1.89,1.58,1.58,0,0,0,1.69,1.77,1.67,1.67,0,0,0,.76-.19.65.65,0,0,0,.34-.6ZM163.39,170c.49,0,.75.38.75.87a.14.14,0,0,1-.15.15h-1.43c0-.68.45-1,.83-1Zm2-.11c.15.07.19.26.19.49v1.32a13.49,13.49,0,0,1,0,1.47,2.55,2.55,0,0,0,.53,0c.11,0,.15-.08.15-.19v-1.77a1.16,1.16,0,0,1,.08-.42.72.72,0,0,1,.6-.52.48.48,0,0,1,.3.07c.08,0,.19-.15.23-.26a.45.45,0,0,0,0-.3.52.52,0,0,0-.34-.12c-.37,0-.71.27-.94.79,0-.49-.15-.79-.37-.79a.46.46,0,0,0-.42.27Zm3.7-.3a1.09,1.09,0,0,0-1.21,1.05,1,1,0,0,0,.56.87c.19.11.38.19.61.3s.37.3.37.49-.18.49-.6.49a1.52,1.52,0,0,1-.87-.3.33.33,0,0,0-.15.26.27.27,0,0,0,.08.23,1.32,1.32,0,0,0,.87.26,1.14,1.14,0,0,0,1.28-1.09.87.87,0,0,0-.53-.79,6.25,6.25,0,0,0-.72-.38c-.18-.11-.34-.23-.34-.45a.48.48,0,0,1,.53-.45,1.34,1.34,0,0,1,.57.15c.19,0,.26-.23.26-.34s-.41-.3-.71-.3Zm2.07-1.63a.42.42,0,0,0-.42.42.34.34,0,0,0,.38.38.39.39,0,0,0,.38-.42.33.33,0,0,0-.34-.38Zm.34,2.15c0-.45,0-.49-.12-.49a3.55,3.55,0,0,0-.6.08c0,.15,0,.41,0,.9v1.36a11.65,11.65,0,0,1,0,1.24,2.49,2.49,0,0,0,.53,0c.11,0,.15,0,.15-.19v-2.87Zm2.94,2.45a1,1,0,0,1-.6.15c-.27,0-.53-.11-.57-.6a16.19,16.19,0,0,1,0-2,5.86,5.86,0,0,0,.87,0c.15,0,.3,0,.41-.46h-1.24a3.45,3.45,0,0,1,0-.6,1,1,0,0,0-.42.19,6.54,6.54,0,0,0-.68.71c0,.08.12.16.38.16v2c0,.6.26,1.06,1,1.06a1.2,1.2,0,0,0,.75-.23c.12,0,.15-.23.08-.38Zm3.17-.07a2.45,2.45,0,0,1-.87.19,1.19,1.19,0,0,1-1.21-1.25h1.59c.26,0,.64-.15.67-.26s0-.15,0-.23a1.26,1.26,0,0,0-1.32-1.32,1.74,1.74,0,0,0-1.66,1.89,1.59,1.59,0,0,0,1.7,1.77,1.94,1.94,0,0,0,.79-.19.91.91,0,0,0,.27-.6ZM176.36,170c.49,0,.75.38.75.87a.14.14,0,0,1-.15.15h-1.43c0-.68.41-1,.83-1Zm.34-2.26c-.15,0-.49.79-.64,1.09,0,.11,0,.19,0,.23a.3.3,0,0,0,.19.11,9.24,9.24,0,0,1,.86-1.09c.08-.08.08-.12,0-.15a.84.84,0,0,0-.45-.19Zm-27.11,8.44a2.63,2.63,0,0,0-.49-.07,1.6,1.6,0,0,0-1.66,1.62,1.27,1.27,0,0,0,1.28,1.43,1.67,1.67,0,0,0,.95-.38.47.47,0,0,0,.49.38c.15,0,.26-.19.3-.3h0c-.19,0-.26-.11-.26-.41v-3.36c0-.41,0-.45-.12-.45a2.89,2.89,0,0,0-.49.07c0,.12,0,.3,0,.64v.83Zm0,2.3a1.13,1.13,0,0,1-.64.23,1,1,0,0,1-.94-1.06,1,1,0,0,1,1.05-1.17.94.94,0,0,1,.53.12v1.88Zm3.58,0a1.6,1.6,0,0,1-.71.15,1,1,0,0,1-1-1.05c.49,0,1.13,0,1.32,0s.52-.12.56-.23v-.19a1,1,0,0,0-1.09-1.09,1.43,1.43,0,0,0-1.36,1.58,1.32,1.32,0,0,0,1.43,1.47A1.25,1.25,0,0,0,153,179a1,1,0,0,0,.19-.49Zm-1-2.07c.41,0,.6.3.6.71a.14.14,0,0,1-.15.15h-1.17c.07-.56.38-.86.72-.86Zm4.22,2.52c0,.12,0,.12.11.12a2,2,0,0,0,.49,0v-3.7h1.21a.47.47,0,0,0,.22-.41h-2.22a3.49,3.49,0,0,1-1,0,.7.7,0,0,0-.19.3c0,.12,0,.15.11.15h1.25V179Zm3.16-2.86a1.47,1.47,0,0,0-1.47,1.54,1.41,1.41,0,0,0,1.44,1.51A1.45,1.45,0,0,0,161,177.6a1.41,1.41,0,0,0-1.44-1.51Zm0,.34c.6,0,.86.56.86,1.17,0,.83-.41,1.13-.79,1.13s-.9-.42-.9-1.21.37-1.09.83-1.09Zm2.11,1.62c0,.64.3,1.09,1,1.09a1.59,1.59,0,0,0,.41-.07,2.13,2.13,0,0,0,.53-.38c0,.3.19.49.45.49a.36.36,0,0,0,.3-.3v0c-.18,0-.26-.11-.26-.41V176.2a1.71,1.71,0,0,0-.45,0c-.08,0-.11.07-.11.22v2a.92.92,0,0,1-.68.33c-.3,0-.64-.07-.64-.79v-1.35c0-.38,0-.42-.08-.42a2.09,2.09,0,0,0-.49.08c0,.15,0,.34,0,.75ZM165,179c0,.08,0,.08.08.08a2.24,2.24,0,0,0,.49,0c0-.19,0-.53,0-.87V175c0-.41,0-.41-.08-.41a2.48,2.48,0,0,0-.49.08c0,.11,0,.33,0,.71Zm2.72-2.9a1.46,1.46,0,0,0-1.47,1.54,1.4,1.4,0,0,0,1.43,1.51,1.45,1.45,0,0,0,1.47-1.54,1.39,1.39,0,0,0-1.43-1.51Zm0,.34c.6,0,.87.56.87,1.17,0,.83-.42,1.13-.8,1.13s-.9-.42-.9-1.21.38-1.09.83-1.09Zm2.11,1.62c0,.64.3,1.09,1,1.09a1.59,1.59,0,0,0,.41-.07,2.13,2.13,0,0,0,.53-.38c0,.3.19.49.45.49a.36.36,0,0,0,.31-.3v0c-.19,0-.27-.11-.27-.41V176.2a1.71,1.71,0,0,0-.45,0c-.08,0-.11.07-.11.22v2a.92.92,0,0,1-.68.33c-.3,0-.64-.07-.64-.79v-1.35c0-.38,0-.42-.08-.42a2.09,2.09,0,0,0-.49.08c0,.15,0,.34,0,.75Zm4.22-2a.9.9,0,0,0-1,.86.81.81,0,0,0,.45.72c.15.08.31.15.49.26s.31.23.31.42-.16.41-.49.41a1.64,1.64,0,0,1-.72-.22c-.08,0-.11.11-.15.22s0,.16.07.19a1.21,1.21,0,0,0,.72.23,1,1,0,0,0,1.06-.91.84.84,0,0,0-.42-.67c-.19-.12-.41-.23-.56-.31s-.31-.18-.31-.37.19-.38.46-.38a1.24,1.24,0,0,1,.49.11c.15,0,.22-.19.22-.3a.71.71,0,0,0-.64-.26Zm3.58,2.41a1.66,1.66,0,0,1-.75.15,1,1,0,0,1-1-1.05c.49,0,1.13,0,1.32,0s.53-.12.56-.23v-.19a1,1,0,0,0-1.09-1.09,1.43,1.43,0,0,0-1.36,1.58,1.44,1.44,0,0,0,2.08,1.32.6.6,0,0,0,.22-.49Zm-1-2.07c.41,0,.6.3.6.71a.14.14,0,0,1-.15.15h-1.17c.07-.56.38-.86.72-.86Z"></path><polygon class="cls-4" points="147.56 133.07 163.01 133.34 163.09 148.72 146.88 148.34 147.56 133.07"></polygon><polygon class="cls-5" points="163.62 132.96 178.28 133.45 177.75 147.47 164.07 148 163.62 132.96"></polygon><polygon class="cls-6" points="176.96 148.53 163.84 148.57 163.13 164.74 177.45 164.89 176.96 148.53"></polygon><polygon class="cls-7" points="147.48 149.21 162.86 149.81 162.3 164.1 147.78 164.51 147.48 149.21"></polygon><path class="cls-8" d="M159.92,138.8c0,.12.11.12,0,.23a.42.42,0,0,1,.23.26c-.12.23-.42.23-.49.49a.63.63,0,0,0,.52.08s-.07-.15,0-.15,0-.08-.07-.12c0-.34.22-.11.33-.07s0,.07,0,.11,0,0-.07,0-.08.11-.15.11,0,.16-.08.23-.07,0-.11.08-.15,0-.23,0a2.2,2.2,0,0,1-.52-.22.34.34,0,0,1,0-.19s-.07,0-.07,0,0-.11,0-.11,0-.11,0-.15-.08-.23.07-.19v-.08c.08-.07.11-.18.27-.18s.11-.19.22-.12m-.41.53s-.08,0-.08.08c.19,0,.3-.19.45-.27,0-.11-.18-.11-.26-.15s-.23.23-.11.34m.45,0h0s.07,0,.07,0-.07,0-.07,0m-.19.08c0,.11-.15.07-.07.19.11-.08.22-.12.26-.23s-.11,0-.19,0m-.15.22s0,0,0-.07h0s0,.07,0,.07"></path><path class="cls-8" d="M164,139c0,.07,0,.15,0,.26s-.12,0-.16.12-.07,0-.15,0v-.08h-.22c0-.08,0-.08.07-.11s.08-.15,0-.23c.19,0,.34,0,.42,0m-.34.15a.32.32,0,0,0,.26,0c0-.19-.23-.12-.26,0"></path><path class="cls-8" d="M164.29,139.25a1,1,0,0,1,.16.27c0,.07-.12.11-.16.19s-.18-.12-.33-.15a.21.21,0,0,0,0-.19,1.1,1.1,0,0,1,.33-.12m-.11.27c.08.07.15.07.19,0s-.08-.07-.15-.07a.12.12,0,0,0,0,.11"></path><path class="cls-8" d="M164.79,139.59a1.18,1.18,0,0,0,.11.19s-.08,0,0,.12c-.19.07-.41,0-.45-.12s.19-.22.38-.19m-.19.12s0,.07,0,.11.07,0,.11,0,0-.08,0-.11-.08,0-.11,0"></path><path class="cls-8" d="M165.12,139.93s0,0,.08-.07a.09.09,0,0,1,.08.07s-.08,0-.08.08,0,0,.08,0-.08.22-.27.18a.79.79,0,0,0-.19-.18c.08-.15.23-.31.3-.12m-.11,0a.1.1,0,0,0,.11.11.08.08,0,0,0,.08-.07s0,0-.08-.08a.12.12,0,0,1-.11,0"></path><path class="cls-8" d="M166.71,140.2s0,0,0,.07h.07c0,.15-.15.15-.11.34-.19.12-.34,0-.49-.11,0,0,0-.11,0-.15a.34.34,0,0,1,.49-.15m-.34.11s.11,0,.11,0-.07,0-.11,0m.19.08c.07,0,0,.07.11,0s0-.19-.11-.19c0,.08,0,.12,0,.16m-.08.15a.27.27,0,0,0,.15,0c0-.11-.15-.18-.15,0"></path><path class="cls-8" d="M167.54,140.2c0,.07,0,.15.11.15s0,.11.08.11c-.16.27-.46.3-.72.45V141s0,0-.08,0,.12.19.15.26a.8.8,0,0,0,.27,0s0,0,.07-.08.12,0,.15-.11h.08c.11-.08.11-.19.23-.27s0,0,0,0v-.12a.08.08,0,0,0,.07-.07c.12.07.08.26.12.34s.19,0,.15.11c-.23,0-.27.15-.42.19s0,.07,0,.11a.37.37,0,0,0-.34.38h0c-.08-.08-.08-.19-.15-.27s-.12-.07-.27-.11c0,0,0,0,0-.07s0,0-.07,0-.15-.15-.08-.22a2,2,0,0,0-.07-.23h.07c.12-.26.46-.23.76-.26,0-.08,0-.15-.15-.23s0,.11,0,.15-.08,0-.08.08,0,0-.11,0,0-.23.07-.3.19-.08.27,0"></path><path class="cls-8" d="M165.65,140.16v0h.08c0,.11.07.11.07.22s-.15,0-.15.12a.55.55,0,0,1-.34-.19s0,0,0,0-.07,0,0-.08,0,0,.08-.07h.26m-.19.26c.08,0,.15,0,.12-.07a.15.15,0,0,1-.12,0s0,0,0,.11"></path><path class="cls-8" d="M166,140.54c0,.07.07.07.07.15a1.39,1.39,0,0,0-.11.19c-.19.07-.3,0-.34-.23s.23-.15.38-.11m-.26.22H166c0-.07-.07-.07-.07-.19h-.08c0,.12,0,.12,0,.19"></path><path class="cls-8" d="M163.8,141.22c-.07,0-.07,0-.11,0s-.26,0-.34.15,0-.11-.11-.08.23-.07.26-.19.42,0,.3.16"></path><path class="cls-8" d="M163.77,141.33c0,.07-.08.07-.08.15a.84.84,0,0,1-.3-.08c0-.07.08-.07.08-.11.15.08.26-.11.3,0"></path><path class="cls-8" d="M166.78,141.33a.56.56,0,0,1-.15.34c-.15,0-.19-.15-.26-.27s.3-.18.41-.07m-.3.07s0,.08.08.12.07,0,.11,0,0,0,0-.08-.11,0-.15,0"></path><path class="cls-8" d="M167.08,141.67s0,.07,0,.07,0,.19,0,.27-.19,0-.26,0c-.19-.27.15-.57.33-.34m-.22.19H167c0-.08,0-.08,0-.12h-.11s0,.08,0,.12"></path><path class="cls-8" d="M158,141.67a.13.13,0,0,1,0,.11c.11,0,.11.15.27.11,0,.08,0,.08,0,.15s0,0-.11,0v.12c-.15.07-.15.3-.26.45s0,0,0,.11,0,0-.07,0-.08-.11-.11-.15-.08-.19-.16-.19h0a2.2,2.2,0,0,0-.46-.23.39.39,0,0,1-.3,0c0-.11.12-.07.15-.15V142s0,0,.08,0,0,0,0-.08h0s0-.07,0-.11.07.08.15.08c0,.18.23.15.3.3,0,0,0,0,.11,0s0,0,0,.11.12,0,.19.08,0-.19.11-.31-.07,0-.11-.07,0-.15,0-.26a.4.4,0,0,1,.19,0m-.91.37a0,0,0,0,0,.08,0s-.08,0-.08,0"></path><path class="cls-8" d="M167.42,142.08c-.07,0,0,.12,0,.15a.25.25,0,0,1-.34.12c0-.08,0-.08-.07-.08s.07-.11,0-.11a.27.27,0,0,1,.41-.08m-.3.19a.55.55,0,0,0,.23,0s0,0,0-.07c-.15,0-.15.07-.19.11"></path><path class="cls-8" d="M169.08,142.35c.08,0,.12.07.12.15s0,0-.08.07a.09.09,0,0,0,.08.08.07.07,0,0,0,0,.11c0,.15.23.15.27.19s0,0,0,.07a.86.86,0,0,1-.34-.07c-.15,0-.19.11-.3.15s0,.08,0,.08,0,0-.08,0,0,.11-.15.07c0,.12-.11.23-.22.19s0-.07,0-.15,0,0,.07,0,0-.07-.11-.07-.11-.08-.08-.19c.27.07.53-.15.76-.27,0-.19.07-.26.07-.37"></path><path class="cls-8" d="M167.57,142.35c0,.07,0,.07.08.07s.08.19,0,.3-.08,0-.11.08a.24.24,0,0,1-.27-.15s0-.08,0-.08-.07,0,0-.07.15-.15.3-.15m-.15.34a.14.14,0,0,0,.15,0v-.16c-.11,0-.15,0-.15.16"></path><path class="cls-8" d="M167.91,143a.57.57,0,0,1,0,.26.63.63,0,0,0-.27,0,.31.31,0,0,1-.11-.3c.19-.08.3-.19.41,0m-.26.07c0,.12.11.12.19.08V143c-.11,0-.19,0-.19,0"></path><path class="cls-8" d="M168.22,143.36s-.08.12,0,.15c-.08.08-.12.16-.27.19s0-.07,0-.11h-.07s-.08-.11-.08-.15,0,0,.08,0,0,0,0-.07.22,0,.38,0m-.34.12s.07,0,0,.07.08,0,.15,0,0,0,0-.07-.15-.11-.22,0"></path><path class="cls-8" d="M163.39,143.36c.08,0,.08,0,.08.12h-.12a.15.15,0,0,0,0-.12"></path><path class="cls-8" d="M163.43,143.51a.76.76,0,0,1,.07.42c0,.07-.07.15-.07.23v.07c0,.15-.15.23-.19.34s0,0,.07.08a1,1,0,0,0-.26.3c-.07,0,0-.23.08-.23,0-.11.07-.15,0-.22s.08,0,.12,0c0-.15.11-.27.07-.46h0c0-.07,0-.11,0-.15.12-.11,0-.3.08-.34"></path><path class="cls-8" d="M168.37,143.78c0,.07-.08,0-.08.07s0,0-.07,0,0,.12-.08.15.26,0,.26.08-.07,0-.11.08-.11-.08-.19-.12,0-.45.27-.26"></path><path class="cls-8" d="M163.65,143.89c.08,0,.08.11,0,.11s-.07,0-.07-.11,0,0,0,0"></path><path class="cls-8" d="M168.48,144.16c0,.07,0,.15.11.18s-.11.12,0,.23h.11s0,.08,0,.08c.19.15,0,.37-.26.3.07-.12-.08-.12-.08-.23a.09.09,0,0,0,.08-.07s0-.12,0-.12-.15,0-.19-.07,0,0,0-.08a.09.09,0,0,0,0-.07c.15-.08.19-.15.34-.15m-.15.18c0,.08,0,.12.07.12s.08,0,.12-.08-.12,0-.19,0m.11.38c0,.08,0,.11.08.11a.11.11,0,0,0,.07,0s0-.08,0-.08-.11,0-.15,0"></path><path class="cls-8" d="M162.18,144.27c0,.07,0,.15.08.19s0,.22-.15.26c0-.15.07-.38-.08-.41v0c0-.08.12,0,.15,0"></path><path class="cls-8" d="M157.4,144.46s-.12,0-.08,0,0,0,.08,0"></path><path class="cls-8" d="M162.33,144.8a.2.2,0,0,1-.07.11.12.12,0,0,1-.11,0c.07,0,0-.07,0-.15s.15,0,.18.08"></path><path class="cls-8" d="M162,144.8s0,0,0,0,.11,0,.11.08,0,0-.07,0,0,0,.07,0,0,0,0,.07c-.19,0-.19-.19-.22-.34a.23.23,0,0,1,.19.08"></path><path class="cls-8" d="M168.82,145.1s0,.11,0,.19a.25.25,0,0,1-.45-.08c0-.07.11-.07.11-.15a.29.29,0,0,1,.34,0m-.26.07s0,.08,0,.12.15,0,.15-.12h-.15"></path><path class="cls-8" d="M168.93,145.55c0,.11,0,.19,0,.26a.28.28,0,0,0-.15.08c-.15,0-.19-.11-.3-.23a.25.25,0,0,1,.3-.18c.08,0,.08.11.15.07m-.22.08v.11h0s.12,0,.15-.08a.38.38,0,0,0-.18,0"></path><path class="cls-8" d="M159.21,150s.11.11,0,.19.08,0,.12.11h-.08c0,.15,0,.3-.07.38s0,0,0,.08c-.15.37.08.79-.15,1.09,0,0,.12.11,0,.19a.3.3,0,0,1,0,.26c0,.08,0,.08.08.15s0,0-.08.08.08.3,0,.3.08,0,.08.11,0,.08-.08.12,0,0,.08,0a.17.17,0,0,1-.08.15s0,.12,0,.15,0-.3-.11-.37c.07-.08,0-.23.07-.34s0-.15-.07-.19a.09.09,0,0,1,.07-.08s0-.07-.07-.11,0,0,0,0a.1.1,0,0,0,0,.07.42.42,0,0,0,0,.38s0,0-.08.08,0,0,0,.07-.07.08-.11.15,0,0,0,0,0,.15,0,.19,0,0-.08.07.08.08,0,.12.08,0,.08.07,0-.11.15-.11,0,.15,0,.15.07,0,.07.08-.11,0-.15,0,0,0,0-.08-.15,0-.19,0a.65.65,0,0,1,0-.34.37.37,0,0,1,0-.38c0-.15,0-.45,0-.64s.18,0,.26,0,0,0-.08-.08,0-.15,0-.23,0,.19-.11.23-.11-.23,0-.26,0-.15,0-.19a.23.23,0,0,1,0-.15s.12,0,.15,0,.08.26,0,.34,0,0,.07.07,0,0,0-.07,0-.08,0-.15,0,0,.08,0,0-.08-.08-.12l.11-.22s-.07,0-.07,0,.11-.27,0-.3.07,0,.07,0,0,0-.07,0,0,0,0-.11l.07-.08a.82.82,0,0,1,0-.49c-.07,0-.07-.11-.07-.19h.07c0-.18-.22-.07-.15.08s0,0,0,0a.41.41,0,0,1,0,.49.59.59,0,0,1,0,.41s.07,0,.07.12a.15.15,0,0,1-.07,0c0,.08.07.08.07.15s-.07,0-.11.08a.59.59,0,0,1,0-.45s-.08,0-.08-.08,0-.11,0-.22a.09.09,0,0,0,.07-.08.27.27,0,0,0,0-.19c.12-.07-.07-.3.08-.38a1.88,1.88,0,0,1,0-.67c0-.08-.08,0-.08-.12a.07.07,0,0,1,.08,0c0-.22,0-.45,0-.68h0c0-.07-.08,0-.08-.11s0,0,.08-.07,0-.15,0-.23-.08,0,0-.11,0,0,.07,0-.07-.42-.11-.64c0,0,0,0,.08,0,0-.19,0-.34,0-.57,0,0,.07,0,.11,0s.08.31,0,.38.08.08.08.11a.22.22,0,0,0,0,.27s-.11,0-.15,0v0s0,0,0,0,.07.22,0,.3a.82.82,0,0,1,0,.49s0,0,0,.07,0,.08-.07.12,0,0,0,0,0,.08-.08.12.08.11,0,.22c.19,0,0-.26.15-.26,0-.11,0-.19,0-.23s0-.07.08-.11,0-.07-.08-.11,0-.08.08-.15,0-.08-.08-.08,0-.19.15-.19-.07-.07-.07-.07,0-.08,0-.15,0,0,0,0,0-.15-.07-.19c.15-.19,0-.41,0-.6,0,0,0,0-.08-.08a.37.37,0,0,0,.11-.15s-.07-.15,0-.19,0-.11-.07-.11,0,0,.07-.08,0,0-.07-.07,0-.08.07-.11,0-.08,0-.08.07,0,.07-.11-.07,0,0-.12a.09.09,0,0,1,.08-.07.23.23,0,0,1,0,.3c.11.08,0,.26.07.3s-.07.15,0,.15a.68.68,0,0,0,0,.38.11.11,0,0,0,0,.19s0,.07-.08.11,0,.3.08.45c-.16.08,0,.19-.08.34s0,0,0,.08,0,0,0,.07.08.12.08.19,0,0,0,.08,0,0,0,.07,0,0-.08.08,0,0,.08.07,0,.12,0,.23h-.08c.12.08,0,.26.08.38s0,.26-.12.34c.08,0,.12.26,0,.3.12.11,0,.26,0,.41.19-.11.12-.11.12-.15m-.12-.9s.08,0,.08.07-.12.19,0,.27c-.08.11,0,.26,0,.37.08,0,0,.08.12.08s0-.19,0-.27,0,0,0-.07,0,0-.07,0a.91.91,0,0,1,.11-.3c-.11,0,.11-.26-.11-.26a.14.14,0,0,0-.08.15"></path><path class="cls-8" d="M170.52,145.93l-.12.22a.71.71,0,0,0,.19.31c0,.15,0,.26-.07.33s.07,0,.07,0a.25.25,0,0,1-.15.15l-.11,0a.14.14,0,0,0-.08,0s-.07.08-.11,0-.11-.15-.23-.19,0,.08-.07.12a.56.56,0,0,0-.19.11c-.11,0-.23.07-.3.11s-.08-.11-.08-.19.11-.11.15-.19c.19,0,.23-.07.34-.11v-.07c.11,0,0-.12,0-.19a1.74,1.74,0,0,0-.42.11s-.07,0-.07-.07.07-.23,0-.34h-.08c0-.08,0-.08,0-.15.19,0,.34.22.53.11h.15c.12-.11.42,0,.45-.23,0,0-.07,0,0-.07s.07.15.19.15m-.57.45c0,.08,0,.11,0,.15s0,0,.08,0c0,.23.22.26.41.23,0-.12,0-.27-.07-.34s0-.08,0-.08-.08,0-.11,0-.15,0-.23.08"></path><path class="cls-8" d="M168.86,145.93s.07.07.11,0a1.74,1.74,0,0,1,.11.18H169s0,0,0,.12a.36.36,0,0,1-.42,0s0,0,.08-.08h-.08a.29.29,0,0,1,.27-.22m0,.26c0-.07-.07-.07-.15-.07s.08.07.15.07"></path><path class="cls-8" d="M163.77,146.27c0,.07-.08,0-.08.07s.08,0,0,.12h0s0,0,0-.08a.09.09,0,0,0-.07.15c-.11,0-.08-.07-.11-.15s.15,0,.15-.15c0,0,.11,0,.15,0"></path><path class="cls-8" d="M161.73,146.3h.08c0,.08-.12.08-.08,0"></path><path class="cls-8" d="M163.13,146.68s.07,0,.15,0,.11.23.22.23.12-.15.19-.11,0,0,0,.11.08,0,.08,0-.11,0,0,.15-.07.08-.15.11-.11,0-.15,0-.41-.22-.41-.45c0,0,0,0,.07,0s0,0,.08,0"></path><path class="cls-8" d="M169.16,147c0,.07,0,.07,0,.15s-.12,0-.08.15c-.15,0-.19,0-.26,0a.2.2,0,0,0-.08-.19c0-.19.23-.15.38-.07m-.23.11s0,0,.12,0,0,0,0-.08-.19-.07-.15,0"></path><path class="cls-8" d="M162.52,147.17c0,.11-.15.11-.15,0s.08,0,.15,0"></path><path class="cls-8" d="M163.69,147.21s0,.07,0,.07h-.07s0,0,0-.11.11,0,.15,0"></path><path class="cls-8" d="M163.47,147.25v.07h.26s0,.08,0,.12h-.15c-.11-.08-.19-.16-.3-.23s.15.07.23,0"></path><path class="cls-8" d="M169.2,147.4c0,.07,0,.11-.12.11s0-.11-.11-.07a.12.12,0,0,0,0,.11c.08.07.19,0,.27,0s-.23.07-.34.07,0-.15-.08-.15.08-.07.08-.15.15-.11.22,0,.08.08.12.08"></path><path class="cls-8" d="M169.27,148a.5.5,0,0,1-.34.11c0-.11-.15-.18-.07-.34a.27.27,0,0,1,.41.23m-.34,0h.19c0-.19-.19-.19-.19,0"></path><path class="cls-8" d="M169,148.23c.07,0,.07.07.15,0a.22.22,0,0,1-.23.37s0-.07-.11-.07,0,0,0-.12.08-.15.11-.18.12,0,.12,0m0,.19s0,.07,0,.11.08,0,.15,0v-.11c-.11,0-.11,0-.15,0"></path><path class="cls-8" d="M156.53,148.27c.07,0,.11,0,.11.11s-.07,0-.07.11a1.19,1.19,0,0,1,.18.3.14.14,0,0,0-.11,0c-.22-.19-.6-.11-.87-.15-.07.08-.18.15-.26.23h-.15a.32.32,0,0,1,.08-.27c0-.07,0-.19-.08-.26.08-.27.38.19.53,0,.22,0,.53.08.64-.07"></path><path class="cls-8" d="M169.16,148.83c0,.11,0,.15,0,.26a.23.23,0,0,1-.19.08c0,.11.08.15.11.19a.21.21,0,0,0,0,.15.23.23,0,0,1-.38.07s0,0,0-.07,0,0-.07,0,.15-.15.22-.22-.11,0-.15-.08,0,0,0-.11-.08,0-.08,0,.08-.08,0-.11a.37.37,0,0,1,.31-.12c.07,0,.07,0,.11,0m-.19.23c.08,0,.08,0,.15-.08s-.11-.07-.15-.15c0,.08-.08.19,0,.23m-.08.34s0,0,0,.07.11,0,.11,0,0-.15,0-.15,0,0-.08,0"></path><path class="cls-8" d="M157.4,149.25s0,.11,0,.11a.36.36,0,0,0-.08.19s0,0,0,0c-.53,0-.15-.75.12-.33m-.27.18c.12,0,.15,0,.19-.07s-.26-.08-.19.07"></path><path class="cls-8" d="M164.22,149.43a.16.16,0,0,0,0,.19s0,0-.08.08a2.12,2.12,0,0,1,.3.3c-.11.07-.15-.08-.19-.11s-.15-.08-.18-.19a.15.15,0,0,0,0-.12s0,0,.07,0-.07-.07-.07-.15a.14.14,0,0,1,.15,0"></path><path class="cls-8" d="M157.36,149.77a.25.25,0,0,0-.27.08s.12,0,.16.07.07,0,.11-.07,0,0,.07,0a.19.19,0,0,0-.07.15c-.19,0-.38,0-.34-.27l.11-.11c.15,0,.42-.08.23.11"></path><path class="cls-8" d="M163.77,149.92c0,.08,0,.12,0,.19s0-.11-.08-.15a.15.15,0,0,1,.12,0"></path><path class="cls-8" d="M168.93,150.15s.08.08.12.08,0,.11,0,.22-.08,0-.16,0,0,.19-.11.23a.18.18,0,0,0-.19,0c.08,0,.08.08.15.08s0-.11.12-.11a.14.14,0,0,1,0,.11.08.08,0,0,0-.07.07c-.08,0-.08,0-.11,0s.15.15.07.31c-.07,0-.07.07-.11.11a.27.27,0,0,1-.19,0c0-.07,0-.07,0-.11s.08-.27.27-.23c0,0,0,0,0-.07s-.08,0-.12-.08,0,0,0-.07,0,0-.07,0,0-.08.07-.15a.4.4,0,0,0,.23-.08s-.12,0-.15-.07,0-.27.22-.23m-.15.26c.08,0,.15,0,.15-.07s-.22-.08-.15.07m-.3.8c.08,0,.08.11.19.07s.07,0,.07-.11a.29.29,0,0,0-.26,0"></path><path class="cls-8" d="M164.26,150.41c0,.08,0,.12,0,.12s0,0,0,.07.07.19.19.23a.1.1,0,0,1,0,.07c-.15,0-.12-.26-.3-.3,0-.07,0-.07-.08-.15a.55.55,0,0,1,.23,0"></path><path class="cls-8" d="M168.56,151.51c0,.07.11.11.07.19s-.11,0-.15-.08,0,.08-.08,0v.11c.16,0,.16,0,.23-.07s0,.07,0,.11-.07,0-.07.11a.51.51,0,0,1-.31-.19s0,0,.08,0,0,0,0-.12.11-.11.27-.07"></path><path class="cls-8" d="M170.18,151.88c0,.08,0,.16,0,.19s-.22.23-.07.3c-.11,0-.08.19-.19.23s.08,0,.08.08,0,.15-.12.15V153c-.11.07-.3,0-.41-.08s.26-.07.34-.22-.27-.19-.49-.19a.49.49,0,0,0-.42,0v-.19c.19,0,.08-.15.12-.3a6.84,6.84,0,0,0,.82.38c.08-.08.08-.34,0-.34-.15-.34.19-.12.34-.12"></path><path class="cls-8" d="M168.18,152a.76.76,0,0,0,.26,0c0,.07,0,.11.12.15a.49.49,0,0,1-.23.22.26.26,0,0,1-.27-.26s.08-.08.12-.08,0,0,0,0m0,.18c0,.08.23.12.26,0v-.11c-.11,0-.15.07-.26.07"></path><path class="cls-8" d="M157.81,152.22c0,.08.08.08.11.12a.84.84,0,0,0-.07.26.32.32,0,0,1,.22.23H158c0,.07,0,.11,0,.11a.65.65,0,0,1,.23.3c0,.08-.12.08-.12.15-.18,0-.22-.07-.33-.11a.2.2,0,0,1,.11-.19c0-.07-.15-.07-.23-.15a.11.11,0,0,0,0-.15s0-.11.08-.15-.12-.08-.19-.11c0-.19,0-.34.3-.31m-.19.15s.08.16.15.12-.07-.19-.15-.12m.15.42a.2.2,0,0,0,.08.15c.07,0,.07-.08.11-.11s-.11-.12-.19,0m.08.49c.07,0,.07.07.11.11s.11-.07.08-.15-.19,0-.19,0"></path><path class="cls-8" d="M168.37,152.75c-.12.08-.27.23-.38,0,0,0,0,0,0,0s-.08,0-.12,0,0-.07,0-.11c.12-.08.27-.19.42,0,0,.08,0,.08,0,.15m-.31-.07c0,.07.08.11.16.11a.14.14,0,0,0,0-.15c-.08,0-.12,0-.16,0"></path><path class="cls-8" d="M167.84,152.94c.07,0,.26,0,.34.08s0,.07-.08.11a.14.14,0,0,1,.08,0s-.08,0-.08.11c-.19,0-.22,0-.34,0a.17.17,0,0,0,0-.19s.08,0,.08-.11m0,.26s.07,0,.15.08,0-.11,0-.19h-.12s0,0,0,.11"></path><path class="cls-8" d="M167.88,153.35c.07.12.15.27.07.38s-.15,0-.26,0-.12-.11-.12-.26c.12,0,.16-.12.31-.12m-.19.19a.25.25,0,0,0,.15.15s0-.11,0-.15-.15-.07-.19,0"></path><path class="cls-8" d="M158.26,153.73c0-.11-.11-.11-.19-.07s0,.07,0,.15.08-.08.15-.08,0,.08,0,.11-.22-.07-.34-.11c0,0,0-.07,0-.19a.28.28,0,0,1,.42.08c0,.07-.08.11-.12.11"></path><path class="cls-8" d="M167.8,153.88c0,.08,0,.08,0,.12s-.11.07,0,.11-.11,0-.11.11-.12,0-.23,0,.15.08.15.23-.19.19-.37.15c0-.15-.08-.19-.08-.34.11,0,.19-.08.26-.11s0,0-.07,0,0-.08.07-.11a.1.1,0,0,0-.07,0c.07-.15.3-.12.45-.08m-.34.12s0,.07.08.11h.15c0-.11-.12-.19-.23-.11m-.15.37c0,.08,0,.08,0,.12s.11,0,.19,0l-.08-.15c0,.07-.15,0-.15.07"></path><path class="cls-8" d="M167.27,154.64c0,.07,0,.07,0,.15a.17.17,0,0,1,.08.15s0,0-.08,0a.17.17,0,0,1,0,.11.24.24,0,0,0-.16,0,.68.68,0,0,1-.07.26c-.11,0-.08,0-.19,0s0,.07-.07.11c.15.23-.16.34-.31.34,0,0,.08,0,.12.08s-.23.18-.34.26.07,0,.07.08-.19.18-.37.18c0,0-.08,0,0-.11s0,0-.08,0,0-.07,0-.11.15-.12.22-.23h.11s0,0,0-.07-.07,0-.07,0a.3.3,0,0,1,.3-.19s-.08-.08-.08-.19a.06.06,0,0,1,.08,0c0-.11.15-.15.34-.11,0,0,0,0,0-.08s-.08,0-.08,0,0-.18.08-.22.11,0,.22,0a.49.49,0,0,1,0-.34.48.48,0,0,1,.3-.07m-.19.15c0,.07,0,.07,0,.11s.11,0,.11.08a.09.09,0,0,1,.08-.08s0,0,0-.11-.12,0-.16,0m-.07.26h.07s0-.07,0-.07,0,.07,0,.07m-.23.23c.12,0,.15,0,.23-.08s0,0-.08-.07h-.11a.23.23,0,0,1,0,.15m-.26.34s.11,0,.15,0a.08.08,0,1,0-.15,0m-.3.34s.07,0,.15,0v-.12h-.08c0,.08-.07,0-.07.12m-.34.37c.11,0,.22.08.26-.11s-.19,0-.26.11"></path><path class="cls-8" d="M168,155.35a.15.15,0,0,1,0-.11c0-.08-.07-.08-.11-.11s.15-.12,0-.19a.42.42,0,0,1,.3-.19.36.36,0,0,1,.19.15s0,.15,0,.19c0,.19-.12.22-.19.34s-.15-.08-.3-.08m0-.22s0,0,.08,0,0-.11-.11-.11.07,0,0,.08m.31,0a.2.2,0,0,0,.11-.07s0,0-.08,0,0,0,0,.11"></path><path class="cls-8" d="M159.32,155.47a.34.34,0,0,0,.19,0c.34.23-.15.57-.38.23a.7.7,0,0,0,.19-.26m0,.3a.12.12,0,0,0,.19-.12c-.12,0-.23,0-.19.12"></path><path class="cls-8" d="M159.88,156s0,0-.07,0,0,.08.07.12a.2.2,0,0,1-.37,0,1.64,1.64,0,0,0,0-.18c0-.08.27-.08.34,0m-.3.12a.18.18,0,0,0,.19,0V156c-.11,0-.15,0-.19.08"></path><path class="cls-8" d="M160,156.18s.07,0,.11,0a1.21,1.21,0,0,1,.08.19,0,0,0,0,0,0,0l-.08.11a.21.21,0,0,1-.26,0c0-.08,0-.08-.08-.08s0-.07,0-.11a.32.32,0,0,0,.19-.19m0,.23s0,.07.11.07,0-.07,0-.11a.06.06,0,0,0-.11,0"></path><path class="cls-8" d="M159.36,156.79c0,.07.07.07.11.11s0,0-.08,0,.08,0,.12,0,0,0,0,.08-.07.15-.11.26a.41.41,0,0,1-.49-.15c0-.19.08-.41.42-.37m-.15.11s.11,0,.07,0-.07,0-.07,0m-.19.22s.11.08.15,0-.12,0-.08-.07H159v.07"></path><path class="cls-8" d="M160.68,156.86c.07,0,.11.08.18.08s0,.18.08.22.11-.11.26-.07.08.15.12.19-.12.11-.12.22a.56.56,0,0,1-.26,0,.13.13,0,0,1,0-.11s0,0-.08,0,0-.23,0-.27-.07,0-.11.12a.7.7,0,0,0-.19,0,.53.53,0,0,1-.07-.26.23.23,0,0,0,.19-.08m0,.23h.07s0-.15,0-.12,0,.08,0,.12m.34.22c.07,0,0,.08.11.08s.08,0,.11-.08,0,0,0-.11a.18.18,0,0,0-.19.11"></path><path class="cls-8" d="M165.05,157.09a.39.39,0,0,1,.07.34c-.07,0-.15.11-.22.11s-.08-.11-.19-.11,0,0,.08,0,0-.08,0-.15.07,0,.07-.12a.54.54,0,0,1,.23,0m-.19.3s0,0,.11,0,.08-.08.08-.12-.11,0-.08-.07-.11.07-.11.15"></path><path class="cls-8" d="M161.69,157.43a.44.44,0,0,1-.07.3h-.27s0,0,0-.08-.07,0-.07-.07,0,0,.07,0,0,0,0-.08.19-.07.3,0m-.26.11v.07c.08,0,.08,0,.15,0s0-.07,0-.11-.11,0-.19,0"></path><path class="cls-8" d="M164.48,157.39s.12,0,.19,0,.12.11.12.22-.12.23-.27.19-.19-.15-.23-.22c.12,0,.16-.08.19-.19m0,.22c0,.08,0,.12.08.12s.07,0,.07-.12-.11,0-.15,0"></path><path class="cls-8" d="M162.07,157.65c0,.15.3.15.45.23,0,0,0,.07,0,.07a.27.27,0,0,1,0,.19c.08,0,.19-.15.3-.11a.14.14,0,0,1,.16.15s0,0,.07,0c.11-.19.45,0,.34.15,0,0,.08,0,0,0s-.12,0-.12.11c-.18,0-.26,0-.3-.19h.08a.08.08,0,0,0-.08-.07.26.26,0,0,1-.19.18c-.07,0-.07-.07-.18-.07s-.08-.11-.08-.19c-.15,0-.23,0-.34,0a.33.33,0,0,0,0-.19c-.07,0-.15,0-.22,0s-.15-.08-.23-.11,0-.08.11-.08c-.15-.19,0-.23.23-.19m-.23.23c.08,0,.23,0,.23,0s-.26-.15-.23,0m.42.15a.13.13,0,0,0,0,.11c.07,0,.11,0,.07-.11h-.11m.38.26c.07,0,.11,0,.18,0s-.26-.12-.18,0m.49,0v.08s0,0,.07,0,.08,0,0-.12-.08,0-.11,0"></path><path class="cls-8" d="M164.26,157.77s0,.15.11.18v0s0,0-.08,0,0,0,0,.07a.09.09,0,0,0-.07.08c-.15,0-.23,0-.26-.08a.11.11,0,0,0,0-.07s0,0-.07,0,.07-.08,0-.15.18-.11.3-.11m-.08.26a.09.09,0,0,0,.08-.08.36.36,0,0,0-.19,0c0,.07.07.07.11.11"></path><path class="cls-8" d="M165,157.92c0,.07,0,.15,0,.18s0,0,.11,0c-.07.23.23.34.31.57.11,0,.15.15.26.15s.08.07,0,.15h-.12c-.11.07-.18.23-.33.26a.56.56,0,0,1,0-.22,4.72,4.72,0,0,1-.26-.46s-.08,0-.08,0-.07-.08-.15-.15-.19-.23-.19-.19a.16.16,0,0,1,.19-.08s0-.07.08-.07,0-.08,0-.12,0,0,.11,0"></path><path class="cls-8" d="M164.37,158.29s0,0,.08.08v.07s.07,0,.11.08,0,0,0,.07l.11.12c-.07.07-.3,0-.34-.08H164a.31.31,0,0,0-.11.34c.26.23.57-.15.91,0,0,.15.18.34,0,.49-.07,0-.07-.15,0-.22-.16,0-.38,0-.46.15a1.69,1.69,0,0,0-.45,0s0-.08,0-.11-.07,0-.11,0,0,0,0-.08h-.08c0-.19.15-.22.11-.45.08,0,.12-.08.19-.11v-.08c.08,0,.12,0,.12,0a.86.86,0,0,0,.26-.23"></path><path class="cls-8" d="M162,158.56c0,.07-.07,0-.07.11.15.11-.12.45.19.49.07-.08,0-.23.15-.26-.08-.08.07-.15-.08-.19,0,0,0-.08.08-.12s.22.19.41.19v.12a.15.15,0,0,0-.11,0,0,0,0,0,1,0,0,.09.09,0,0,0-.08.08.15.15,0,0,0-.11,0c0,.27-.23.31-.23.57,0,0,0,0,0,.08s0,.07,0,.15l.08.07c0,.08,0,.15-.12.12a.25.25,0,0,0-.18-.16c0-.11-.12-.11-.16-.15s0,0-.07,0-.11-.07-.26-.07-.08-.23-.16-.27,0-.07.08-.11v-.11c.11,0,.19-.19.3-.16s0-.07,0-.11-.08,0-.08-.07,0,0,0-.08a.79.79,0,0,1-.07-.23.13.13,0,0,0,.07,0s-.07,0,0-.08,0,0,.08,0,0,0,0-.11c.19-.11.19.15.3.23m-.26.64c-.08.07-.08.26-.23.22.08,0,.15.08.15.16a.22.22,0,0,0,.31-.12l0,0,.07-.07a1.5,1.5,0,0,0-.26-.15"></path><path class="cls-8" d="M163.62,137.14a.15.15,0,0,1,0,.08c.23-.11.34.15.61.15v.08c.07,0,.11,0,.19,0v.08c.15,0,.22.19.41.11a1.15,1.15,0,0,0,.53.3v.12h.11c.08.15.34.11.38.3a.64.64,0,0,1,.3.22s.08,0,.11,0c.12.23.49.27.57.53h.07a.26.26,0,0,0,.23.15c0,.12.08.15.19.15s.07.19.19.19c.07.19.3.23.37.45,0,0,0,0,.08,0a.46.46,0,0,0,.26.27s0,0,0,.07.26.15.26.38c0,0,.08,0,.11,0s.12.34.3.38v0c.16.07.12.26.27.37v.12h.11c0,.07,0,.07,0,.11s.08.07.15.07c-.07.19.08.27.16.38s0,.19.07.19a.3.3,0,0,0,.19.3v0s.07,0,.07.07,0,.31.16.34,0,.08,0,.08,0,0,.07,0,0,.07.08.11,0,0,0,.07a.08.08,0,0,1,0,.12s.07,0,.11,0a.14.14,0,0,1,0,.11s0,.11.12.11.07.11,0,.23,0,0,.08,0,.08.15,0,.26.07.15.11.23h0c0,.07,0,.11.12.15s0,0,0,.11.07.12.11.15,0,0-.07,0a.08.08,0,0,0,.11.08c0,.07,0,.07,0,.11a0,0,0,0,0,0,0s0,0,0,.07.08,0,.08.08,0,.19,0,.26.07,0,.07,0,0,.11,0,.15,0,0,0,.11h0c0,.08,0,.08.08.12s-.08,0-.08,0,0,0,.08.08a.08.08,0,0,1-.08.07s.08,0,.12,0,0,.12,0,.19.07,0,.07,0a.27.27,0,0,1-.07.19s.07,0,.07,0-.07.11,0,.15-.07,0-.07.07.07.12.11.12a.24.24,0,0,1-.07.15s.07,0,.07,0,0,.22,0,.37c0,0-.07,0-.07,0a0,0,0,0,0,0,0s0-.08.11,0v.08s-.08,0-.11,0,0,.07.07.07,0,.27,0,.34,0,0-.08.08.12.22,0,.26a.51.51,0,0,0,.07.23c0,.11-.11.07-.11.19s.07,0,.07,0c0,.15-.11.18,0,.3-.07,0-.07.11,0,.19s0,0-.08,0,0,.15.08.19,0,.15-.12.23.08,0,.08.07a.12.12,0,0,1-.08,0c.08.11,0,.23,0,.3.12.08,0,.15,0,.23s0,.15-.11.19,0,0,0,.11,0,.19-.12.19c.12.11,0,.23-.07.34a.12.12,0,0,1,0,.15s0,0-.08,0,0,.15,0,.19,0,.11,0,.15-.07.3-.19.38,0,0,0,.11-.11.11-.08.15-.07,0-.07.08,0,0,.07,0,0,0-.07,0,0,.19-.08.19c.08.11-.07.15,0,.26s0,0-.07.08-.11.19,0,.34c0,0-.07,0-.11,0,0,.15-.15.22-.12.37s-.07.08,0,.15-.08,0-.12.08v.07s0,0-.07,0c.07.23-.23.27-.19.49-.15,0-.08.27-.19.34v.11c-.19.08-.11.31-.3.38v.08c-.08,0-.08.07-.11.07s-.12.12-.08.27h-.11s0,.07,0,.11-.08.07-.12.11-.22.23-.19.42a3.81,3.81,0,0,0-.34.37s0,0,0,.08c-.26.07-.18.41-.45.45,0,0,0,0,0,.08s-.11,0-.11,0,0,0,.07,0-.22,0-.18.23c0,0,0,0-.08,0,0,.22-.23.22-.26.41s-.19.23-.38.27c-.08.3-.34.26-.45.52-.15,0-.19.12-.23.23a1,1,0,0,0-.49.38s-.07,0-.11,0c-.08.19-.27.26-.45.34s0,.07,0,.07c-.23.08-.3.3-.53.3l-.11.12c-.3,0-.49.3-.83.26a.75.75,0,0,1-.64,0,.79.79,0,0,1-.64-.19H162c-.11-.11-.41-.15-.52-.3h-.08c-.11-.22-.49-.22-.6-.45h-.12c0-.11-.22-.11-.26-.23-.23-.07-.26-.3-.49-.34,0-.11,0-.11-.15-.11s-.15-.26-.34-.3c0-.08-.11-.08,0-.15h-.11c0-.08-.08-.12-.15-.12,0-.15,0-.22-.15-.22s-.08-.08-.08-.19-.11,0-.11,0v-.07c-.15,0-.15-.23-.34-.27s-.11-.15-.15-.22-.11-.08-.19-.08c0-.15-.15-.22-.26-.3s0,0,0-.08-.11-.07-.15-.11,0-.15-.15-.11,0,0,0-.08-.08,0,0-.11,0,0-.11,0v-.11c-.15,0-.15-.23-.3-.27.07-.11-.15-.11-.12-.26,0,0-.07,0-.11-.08s-.11-.11,0-.18c-.15,0-.15-.19-.26-.27s0-.07,0-.11,0,0-.08,0-.15-.15-.07-.23c-.08,0-.19,0-.15-.15s-.16-.19,0-.23c0,0-.08,0-.12-.07s-.15-.23-.11-.34,0,0,0-.08-.07,0-.07,0,0,0,0-.08-.12-.19-.23-.26a.14.14,0,0,1,0-.08c-.12,0,0-.19-.15-.22s0,0,0-.08,0,0-.07,0,0-.15-.08-.19,0,0,0-.07-.07-.19-.15-.23c.08,0,0-.07,0-.11s-.08-.15-.15-.15a.4.4,0,0,0-.08-.42c0-.07,0-.15,0-.18a.13.13,0,0,0-.11,0c0-.08.07-.08.07-.11s-.07,0-.11-.08,0-.19,0-.26-.08-.08-.11-.08,0,0,0,0a1.59,1.59,0,0,1-.07-.41s0,0,0,0a0,0,0,0,1,0,0s0-.11-.08-.15,0,0,.08-.11-.08,0-.08-.08a.16.16,0,0,1,.08,0s-.08,0-.08-.08-.11-.26.08-.3c0-.08-.08-.08-.15-.08s0-.15.07-.19,0,0-.07-.07,0,0,.07,0a.41.41,0,0,1,0-.45c-.07-.08-.11-.19,0-.26s0,0-.08,0c0-.27,0-.53,0-.76,0,0,0,0-.08-.07a.25.25,0,0,1,.08-.15c0-.08,0-.19-.08-.23s.12-.19,0-.26.08,0,.08-.08,0,0-.12,0c.12-.11,0-.26.12-.34,0,0,0,0-.08,0,0-.15,0-.23,0-.3s.08,0,.08-.08,0-.11,0-.19l.08-.07s-.08-.15,0-.19-.08,0,0-.15.11,0,.11-.08l-.07-.07c.07-.08,0-.19.07-.27a.64.64,0,0,1,.15-.56s-.07,0,0-.12,0-.26.11-.37h.11c0-.08-.07,0-.07-.12s.11-.19.11-.34c0,0,0,0,.08,0s-.08-.08,0-.15h.07c0-.12,0-.12.08-.16-.11-.11.07-.22,0-.41,0,0,0,0,.07,0s0,0,0-.07.08-.27.19-.38,0-.08,0-.11,0,.07.12,0,0,0,0-.07.11-.11.08-.23,0-.22.18-.22v-.12l.12,0s0-.08,0-.15h.07c0-.16,0-.19.08-.34a.12.12,0,0,0,.11,0c0-.11.08-.11,0-.23.15,0,.11-.19.27-.22,0,0,0-.12.07-.12s-.07,0,0-.07a1,1,0,0,0,.27-.38c.19-.15.41-.3.45-.53.23-.11.3-.37.56-.49,0,0,0-.07,0-.11.16,0,.16-.19.31-.19a4.77,4.77,0,0,1,.45-.45s0,0,.07,0,.08-.08.08-.12h.11c0-.15.23-.19.23-.3s.15,0,.15-.11h.07c.19-.23.57-.3.76-.49h.07c.08-.15.31-.19.34-.3.31,0,.38-.27.68-.27a.08.08,0,0,0,.08-.07s.07,0,.11,0a2.36,2.36,0,0,1,.94-.27h.27a3.24,3.24,0,0,1,.83,0m-7.05,5c0,.15-.23.34-.19.53a.29.29,0,0,0-.12.3.69.69,0,0,0-.18.45c-.08,0,0,.11-.12.15v.08c-.11,0,0,.11-.11.11v.07c-.15.23-.15.53-.3.76,0,0,0,0,0,.07l0,0c0,.08,0,.11,0,.19s0,0,0,.08-.08,0-.11.07a.22.22,0,0,1,0,.15s0,0-.07,0,0-.08-.08,0,.08.08.08.19,0,.11-.08.15,0,.08.08.11c-.12,0,0,.27-.15.27a.28.28,0,0,1,0,.22s0,0,0,.08-.07.23,0,.3-.08,0-.12.08.08,0,.08,0,0,.15-.08.19c.08,0,0,.12.08.15h-.08c0,.08,0,.08,0,.12s0,0,0,.07,0,.15,0,.23.12.19,0,.3,0,0,.08,0,0,.07-.11.15,0,.07,0,.07a.09.09,0,0,1,.07.08,1.4,1.4,0,0,0,0,.41h-.07c0,.08.07,0,.07.08,0,.26,0,.41,0,.68h.08c0,.07-.08,0-.08.11s0,.26,0,.34.11,0,.11.11.08.38,0,.53c.07,0,.07.11.07.19s-.07,0-.07.07.07.12.11.16l-.08.07a.09.09,0,0,1,.08.08c-.08,0,0,.07,0,.15s.12,0,.12.11h0c0,.11.11.15.15.08a2.15,2.15,0,0,0,0-.49s0,0,.07,0-.07,0-.07-.08.07-.08.07-.15,0,0-.07,0,0-.19,0-.22a.07.07,0,0,1,.07.07c.27,0,.46-.11.8-.07,0,0,0,0,.07-.08a.22.22,0,0,0,.23-.08h0a.16.16,0,0,1-.08.19s0,0,0,.08a.1.1,0,0,1,0,.07s.08,0,.08.08c-.16,0-.38-.15-.5,0s.08.07,0,.15a0,0,0,0,1,0,0c-.07,0-.11,0-.11,0h.11c0,.27.31.15.46.08s0,.19,0,.26.11,0,.07.12-.22,0-.22-.08a3.28,3.28,0,0,0-.64,0,0,0,0,0,0,0,0c-.12,0-.19,0-.23.12s.08,0,.08,0-.23,0-.27,0,0,.12,0,.19,0,0,0,.11,0,0,.08,0-.08.12,0,.19-.07,0-.07.08,0-.08.11,0,0,.07.07.11,0,0-.07.12.11,0,.11.07,0,.23.08.26,0,.23,0,.31,0,0,0,.07a.12.12,0,0,0,.11,0s0,0,0,.11.08,0,.12.08.07.15,0,.26.08,0,.08,0,.07.19,0,.26.11.08.07.15c.12,0,.12.12.12.23a.26.26,0,0,1,.11.3c.08.11.08.23.19.3a.14.14,0,0,0,0,.08.79.79,0,0,1,.15.19s0,0,0,0,.15.16.11.31.08.07.08.11.08,0,.08,0-.08,0,0,.07a.35.35,0,0,1,.15.27c.07.07.26.15.23.3.18.08.18.3.33.42v.07s.08,0,.08,0-.08,0-.08.07c.19,0,.19.19.31.23,0,.11.15.15.11.3h.11c0,.08.08,0,0,.11.19.08.19.31.38.34,0,0,0,0,0,.08a1.56,1.56,0,0,1,.49.53c.11-.08.11.07.23.07,0,.12.11.12.11.23s0,0,.11,0a1.71,1.71,0,0,0,.45.38s0,0,0,.07H160c0,.15.19.23.34.3,0,.15.19.15.26.27h.12c0,.11.18.15.22.26s0,0,.08,0,.41.23.56.42h.12c0,.11.22.07.26.18s0,0,.11,0v.08c.46.11.68.41,1.28.38a.18.18,0,0,0,.12,0c.07-.07.22-.07.37-.07s0-.08.08-.08.08,0,.11,0,0,0,0-.07c.23,0,.3-.23.53-.23,0,0,0-.07,0-.11s.11,0,.19,0c.11-.19.34-.23.49-.34a.09.09,0,0,1,0-.07,1,1,0,0,0,.3-.19h.07c0-.12.08-.15.12-.23s.33-.26.52-.34v-.07c.08,0,0-.08.12-.08s0-.11.15-.11.07-.23.22-.23c0-.22.42-.26.34-.41.12,0,.08-.08.12-.12s0,.08.07,0,0-.15.11-.19c0-.19.19-.22.27-.37h.07v0s.12,0,.15,0,0,0,0-.08c.15-.15.18-.38.41-.45v0s-.07,0-.07,0a2.12,2.12,0,0,0,.26-.26v-.11c.08,0,.11-.12.11-.19h.08c.07-.12.11-.27.19-.38s0,0,0-.07a.18.18,0,0,1,.11,0s0,0,0-.12,0-.18.19-.15c0,0,0,0,0-.07s.08-.19.19-.23,0-.11.08-.11c.07-.19,0-.34.19-.42,0,0,0,0,0,0h.07c0-.27.23-.53.3-.8,0,0,0,0,.08-.07s0-.38.19-.3c0-.08-.11-.15-.08-.23s.12,0,.15-.07,0,.07-.07,0l.11-.57s.08,0,.11-.11-.07,0,0,0,0-.08,0-.11l.12-.12s0,0,0-.07,0,0,.08,0a.51.51,0,0,1,.11-.45s0,0,0-.08.08,0,.08-.11-.08,0,0,0,.11-.19.11-.38c0,0,.08,0,.08,0s0-.15,0-.19,0,0-.08,0c0-.15.19-.3.11-.49.12-.11,0-.3.08-.45a0,0,0,0,1,0,0s.08,0,.08-.07,0-.31,0-.38,0,0,.08-.08,0-.07,0-.11,0,0,.07-.11,0-.3,0-.34-.07,0-.07-.12,0-.11,0-.18,0-.16,0-.27a.08.08,0,0,0,.07-.07H171c0-.08,0-.08,0-.12a1,1,0,0,1,0-.34c-.12-.22,0-.49-.12-.71,0,0,.08,0,.08,0a.28.28,0,0,1-.08-.19s.08,0,.08,0a.28.28,0,0,1,0-.26s-.08,0-.08,0-.07-.15,0-.26v0s-.07,0-.07,0,0-.11.07-.19-.11,0-.11-.07,0-.23.07-.3-.11,0-.11,0,0,0,0-.08,0-.11-.08-.15-.07,0,0,0,0-.18,0-.26,0-.15,0-.19v-.07s-.11-.08,0-.12-.07-.11-.11-.19.08,0,0,0-.12,0-.12-.08,0,0,0-.11h-.07c0-.23-.15-.34-.15-.53,0,0-.08,0-.08-.08s0-.22-.11-.33a.12.12,0,0,0,0-.08c-.08,0-.12,0-.12,0s-.22-.19-.15-.37c-.07,0-.07-.08-.07-.16s-.12,0-.08-.07a.08.08,0,0,1-.07-.08v-.07c-.23-.27-.31-.64-.57-.87.08-.19-.23-.15-.11-.34-.12,0-.15,0-.15-.19s-.12-.07-.15,0,.07,0,.07-.08a.13.13,0,0,1-.11,0c0-.11-.15-.15-.12-.26-.15,0-.22-.11-.26-.27s-.26-.11-.3-.3c-.08,0-.15,0-.15-.11s.07,0,.07,0-.07,0-.11,0c-.15-.15-.38-.23-.45-.45,0,0,0,.07-.12,0s-.07-.12-.07-.19-.15-.08-.15-.19c-.15,0-.15-.15-.34-.15a.13.13,0,0,0-.11-.12c0-.07-.08-.11-.19-.11s0-.07-.08-.11-.15,0-.11-.11-.08,0-.11,0a.58.58,0,0,0-.38-.27c0-.15-.26-.07-.34-.19-.08,0-.15,0-.15-.11s-.19,0-.15-.15a.59.59,0,0,1-.34-.15s-.08,0-.11,0-.08,0-.19-.11-.19-.12-.27-.12-.26,0-.37-.11h-.19c0-.11-.23,0-.3-.07a.3.3,0,0,1-.23,0c-.11.07-.3,0-.34.15s-.07,0-.11,0a.65.65,0,0,1-.15.11s0,0,0-.07,0,.07-.08.11-.18,0-.3,0,0,0,0,.08,0,0,0,0a.08.08,0,0,1-.08.07c-.22.08-.38.27-.6.27-.23.22-.57.3-.79.49-.12,0-.12.11-.19.15s-.15.15-.3.11-.08.19-.23.19a2.53,2.53,0,0,1-.75.64.25.25,0,0,1-.23.26c0,.08,0,.15-.11.15a.15.15,0,0,1,0,.12h-.08c0,.07,0,.11-.15.11,0,.15-.15.15-.22.19s-.08.23-.19.3,0,0,0,.08a1.43,1.43,0,0,0-.15.11c0,.19-.23.19-.27.38h-.07c0,.11-.15.15-.11.34-.16.11-.19.3-.27.41s-.07-.07-.11,0a1,1,0,0,1-.3.42m-1.29,2.9a.09.09,0,0,0,.08-.07s-.08,0-.08.07h0M171,147.55c.07,0,.07,0,0,0s0,0,0,0m-15.16,3.09s-.07,0,0,0,.08,0,0,.07,0,.08,0,.12a.15.15,0,0,0,.16,0c0-.08,0-.12,0-.15s0-.08,0-.16a.44.44,0,0,0-.19,0c0,.07,0,.11.07.11m.23.26s.07,0,.11,0,0-.26-.07-.3,0,.19,0,.3m-.3,2.23c.07,0,.15,0,.11-.08,0,.08-.11,0-.11.08m.75,1.51h-.07c0,.07.07,0,.07,0"></path><path class="cls-8" d="M157.32,148.42s0,0,.08,0-.08.15-.15.18v.08a.5.5,0,0,0,.18.11c0,.08,0,.08,0,.15s-.08-.11-.19-.15l0,0c0,.08,0,.11,0,.15s.11,0,.15,0,0,0,0,.08a.45.45,0,0,1-.38,0s0-.07,0-.07-.08,0-.08-.08a.25.25,0,0,0,.11-.23.45.45,0,0,0-.11-.15c0-.18.11-.15.19-.26s0,0-.08,0,0-.15,0-.26.07-.08.11-.15-.08,0-.08,0,.08,0,.08,0-.08,0-.11-.07a.25.25,0,0,1,.19-.27.27.27,0,0,1-.12-.37.15.15,0,0,1,.12,0v-.08s-.08,0-.12-.07,0-.15,0-.23a.44.44,0,0,0,.19-.07c0-.08-.07-.08,0-.16s0,0-.12,0c.08,0,.08-.19.19-.23s-.07-.11-.11-.19a.47.47,0,0,0,.07-.22.17.17,0,0,0,.15-.08s-.07,0-.15,0,0,0,0-.07,0,0-.07,0a.29.29,0,0,1,.45-.15v.26a.35.35,0,0,1-.19.15s.07,0,.07,0,0,.08,0,.08.07,0,.07,0-.07.08,0,.16-.11,0-.15.11.12.15.12.22-.08.16-.19.19,0,.12.11.12,0,0,0,.11,0,0,.08,0-.19.07-.19.22,0,.08.11.08-.07.15,0,.19-.15.07-.15.22a.21.21,0,0,1,.15.23s0,0-.07,0,0,.15,0,.26.08,0,.08.08,0,.07,0,.15-.08,0-.12.11.08.08.12.12-.08,0-.08,0m0-2.94c.07,0,.07,0,.15,0s0,0,0-.12a.12.12,0,0,0-.19.12m-.08.37s.12,0,.15,0,0-.15,0-.15-.08,0-.12.11m-.07.45s.07,0,.11,0,.08-.07.08-.11-.08,0-.15,0,0,.08,0,.11m-.08.46s.15,0,.15,0,0-.08-.11-.08,0,0,0,.12m0,.49a.12.12,0,0,0,.11-.12c-.11-.07-.15,0-.11.12m.11.37s-.07-.11-.15-.11.08.26.15.11m-.07.53a.16.16,0,0,0,.11-.15c-.15-.15-.3.15-.11.15m-.15.3s.11.08.19,0,0-.11,0-.11-.15,0-.15.07"></path><path class="cls-8" d="M161.51,158.37a0,0,0,0,1,0,0s0,0,.07.07a.18.18,0,0,1-.07.15c0,.12,0,.19,0,.3-.08,0-.08.08-.16.12s0,0-.07,0c-.15.23-.91.34-.83-.08-.08,0,0,.08-.11,0s0-.07,0-.07.07,0,.07,0a.21.21,0,0,1-.11-.19c0-.08.07-.11.11-.19s-.19-.07-.11-.22a2.63,2.63,0,0,0,.53-.27c.07,0,.07,0,.19,0s.07,0,.15,0,.15,0,.18,0,0,.11.08.19.08.07.08.15m-.57-.23s-.08,0-.15,0a2.16,2.16,0,0,0-.27.57c0,.07,0,.11,0,.19s.12,0,.12.11.07,0,.19,0,.19-.12.26-.19.11-.15.08-.3c.18,0,0-.3.15-.42-.15,0-.23-.15-.38,0"></path><path class="cls-8" d="M154.53,146.49a.32.32,0,0,1,0-.11s0-.08.08,0c0-.11,0-.19,0-.3s.07-.23,0-.26,0-.23.11-.27,0-.26,0-.3,0-.07,0-.15.07,0,.11,0,0,0,0,0,0-.42.19-.49c0,0,0,0,0-.08s.08-.42.27-.53c0,0,0-.11,0-.11-.11-.19.12-.3.12-.53h.07c0-.26.19-.38.12-.6,0,0,0,0,.07,0v-.11c.15-.08.08-.38.3-.42,0,0,0,0,0,0s.11-.15.07-.22a1.18,1.18,0,0,0,.38-.57h.07s0,0,0-.07.08,0,.12,0,0,0-.08,0c.08-.15.3-.22.34-.41s.15-.19.3-.27v-.07a7.27,7.27,0,0,1,.61-.64c.07-.12.18-.19.22-.34s.27-.15.34-.27.08-.15.15-.22a.59.59,0,0,0,.38-.34,6.34,6.34,0,0,0,.79-.57h.08a.14.14,0,0,0,0-.11c.23-.08.3-.23.49-.3a.24.24,0,0,1,.19-.11c.11-.12.3-.16.42-.27h.07a5.05,5.05,0,0,1,1.17-.53s.08,0,.08,0,0-.07.11-.07.23-.08.41-.08v.08c.19-.19.53.07.68,0s.19.11.3,0,.19.11.34.11.23.11.34.07.19,0,.19.16a2.94,2.94,0,0,1,1,.45h.15a3.36,3.36,0,0,1,.6.45,5.06,5.06,0,0,1,.79.45,3.91,3.91,0,0,0,.83.68s0,0,.08,0,0,.08,0,.11a12,12,0,0,1,.94,1v.07c.23.11.34.38.49.53v.08c.11,0,.11.18.26.22,0,0,0,0,0,.08s.18.3.3.37a1,1,0,0,0,.26.53.5.5,0,0,0,.23.38.23.23,0,0,0,.11.19c0,.11,0,.19.11.19a.22.22,0,0,0,.15.26c0,.11.08.11,0,.23s0,0,.08,0,.07.12,0,.27,0,0,.07,0,0,0,0,.08c.08.19.19.26.19.49,0,0,.08,0,.08.08s0,0-.08.07.08,0,.11.08c-.07.19.19.22.08.45,0,0,0,0,.08,0-.08.11.15.19,0,.26,0,.08,0,.19.12.23s0,.19-.08.19a.26.26,0,0,1,.08.33s.07,0,.07.08-.07,0-.07.08.07,0,.07,0,0,.3,0,.38,0,.08,0,.11.08.08.12.12a1.65,1.65,0,0,0,.07.75s0,0,0,.08,0,.3,0,.45.08.38,0,.49,0,0,0,.07a1.47,1.47,0,0,1,0,.42s0,0,0,0a.45.45,0,0,1-.11.34c.11,0,0,.15,0,.26l0,0s0,0,0,.07a.57.57,0,0,1,0,.34s0,0,.07,0,0,.08,0,.11,0,0,0,0-.07.23-.07.27-.08,0-.12,0,.08,0,.08.11,0,.07,0,.07c.12.12-.11.19,0,.31a.08.08,0,0,1-.07.07.72.72,0,0,1-.08.57c0,.07,0,.07.08.11s0,0-.08,0c0,.19-.07.22,0,.38s0,.22-.11.26,0,.11,0,.15,0,0-.08,0,0,0,0,.07-.07.27-.15.38,0,.19-.07.23c0,.26-.23.41-.19.75-.08,0-.12,0-.12.15s0,0-.07,0,0,0,0,.07-.12.31-.27.34a.06.06,0,0,0,.08,0c-.15.34-.3.64-.45,1,0,0-.08.08-.08.12s-.07,0-.11,0c0,.16,0,.31-.19.34s-.11.23-.15.38c0,0,0,0-.08,0s0,0,0,.08a1.38,1.38,0,0,1-.3.34c0,.18-.26.26-.23.45a.12.12,0,0,1-.11,0c0,.15-.08.22-.19.26s0,0,0,.07c-.15.08-.19.31-.42.34,0,.12-.07.15-.11.27s-.07,0-.15.07c0,.23-.3.27-.34.49s-.23.3-.38.34c0,.19-.18.27-.26.38h-.08c-.18.26-.52.38-.75.64,0,0,0,0-.07,0-.16.19-.42.3-.53.49h-.12s0,.08,0,.11c-.19,0-.23.23-.42.23,0,0,0,0,0,.08-.18,0-.37.22-.56.26s-.6.34-.91.34-.83.11-1,0-.6,0-.71-.26c-.08,0-.12,0-.08-.08-.15.08-.15-.11-.26-.11s-.08-.11-.15-.11,0,0,0-.08a7.77,7.77,0,0,1-.94-.64.6.6,0,0,0-.34-.26c0-.12-.23-.16-.27-.31a.28.28,0,0,1-.26-.22,3.2,3.2,0,0,0-.45-.3,1.2,1.2,0,0,0-.45-.49c0-.16-.16-.16-.19-.31s-.23-.22-.38-.3c0-.11-.08-.15-.19-.22v-.08c-.15-.07-.19-.26-.34-.34,0,0,0,0,0-.07a3.78,3.78,0,0,1-.56-.72s-.08,0-.12-.08,0,0,0-.07c-.19,0-.15-.3-.3-.38a2.79,2.79,0,0,0-.15-.3s0,0,0-.07-.15-.31-.3-.38c0-.12-.11-.19-.08-.3S156,155,156,155s0-.08.08-.08c-.19-.11-.23-.34-.3-.57a.15.15,0,0,0-.08,0s0,0,0-.08c-.08-.22-.26-.34-.26-.56a.23.23,0,0,1,0-.23c-.08,0-.12-.26,0-.3s-.08,0-.11,0,0-.15,0-.15-.11-.08-.11-.15-.15-.38-.11-.53,0,0-.08-.07c.08-.31-.19-.38,0-.65,0,0,0,0-.07,0s0-.19,0-.27-.08,0-.12-.07,0-.23,0-.34,0,0-.08,0c.12-.11-.15-.3,0-.42-.11-.07,0-.26-.07-.41h0c0-.08,0-.08-.07-.08a.62.62,0,0,0,0-.3s0,0,.08-.07a.51.51,0,0,1,0-.42,1.73,1.73,0,0,1,0-.64c0-.22-.08-.45,0-.64,0,0-.08-.15,0-.19s-.08-.15,0-.19a.12.12,0,0,1,0-.11c.15-.23,0-.68.12-.9-.23,0-.27.07-.23,0m8.6-9.76c-.23.07-.42-.19-.61,0-.11-.08-.19,0-.34,0a.07.07,0,0,1-.07.07.16.16,0,0,0-.08,0s0,.07,0,.07c-.19-.07-.31.19-.46.08,0,.11-.11.15-.26.15,0,.07,0,0-.08.07s0,0-.07,0-.15.15-.27.18-.18,0-.26.08-.11.15-.23.11-.07.08-.15.08,0,.11-.07.11a1.51,1.51,0,0,0-.57.42s0,0-.07,0-.38.18-.49.41l-.27.15s0,0,0,0-.07,0-.11,0v.07c-.11,0,0,.15-.19.12,0,.15-.26.18-.34.3s0,.15-.11.11a.59.59,0,0,1-.26.26c-.08.15-.16.27-.31.31a2.21,2.21,0,0,1-.26.3s0,0,0,.07-.08.08-.15.08c0,.15-.11.3-.27.38,0,0,0,0,0,0s-.07,0-.07,0,0,.08,0,.08c-.15.07-.19.26-.3.34s-.08.18-.12.26,0,0,0,.07-.11.27-.3.34c0,.15,0,.27-.15.31v.11c0,.07-.11.15-.07.22a.18.18,0,0,0-.12.12s.08,0,0,.07,0,0-.07,0,0,.11-.08.11c0,.19-.11.27-.11.46,0,0,0,0-.08,0a1,1,0,0,1-.19.57c.12.11-.15.19,0,.34l-.12.11c.08,0,0,0,0,.08s0,.07,0,.11-.07.11-.11.19.08,0,0,0,0,.22-.12.22v.12s0,0-.07,0,0,.15,0,.23,0,.23,0,.34-.11,0-.11.07.07,0,.07.08,0,.11,0,.11,0,0-.07,0a3.09,3.09,0,0,1-.08.6c.11.08,0,.15,0,.23a.27.27,0,0,1,0,.3.14.14,0,0,1,0,.11c-.23.16,0,.42-.11.61.07,0,.07.11,0,.19s0,0,.07.07c-.15.12,0,.34-.11.45,0,0,.07,0,.07,0s0,.34,0,.42,0,0,0,.11,0,0,0,.08,0,0,0,.07.12,0,.15.08a.75.75,0,0,1-.15,0c0,.15,0,.34,0,.46s.08,0,.08,0,0,0,0,.08.07,0,.07,0,0,0-.07,0,.07.23,0,.27,0,.15,0,.19.07,0,.11,0,0,.31,0,.46c.08,0,0,.11,0,.15a.11.11,0,0,0,.07,0s-.07,0-.07.07a.12.12,0,0,1,.11.11s0,0-.07,0,0,.15.07.19a.11.11,0,0,1-.07,0s.07.07.11.11v.3c.11,0,.08.08.08.19s-.08,0-.08.08.19.15.11.22a.09.09,0,0,1,.08.08c-.11.07,0,.11,0,.22a.19.19,0,0,1,.07.12s0,0,0,.07.07,0,.07.08.11.3.08.49h.07s0,0,0,.07a.41.41,0,0,1,.16.34s0,0,.07,0,0,0,0,.08c.15,0,.08.15.15.18s0,.08,0,.16a.18.18,0,0,1,.12,0s0,.12,0,.19c.19,0,.11.08.15.23.08,0,.11.07.11.15s.15,0,.12.15c.18.11.18.34.34.49a.14.14,0,0,0,0,.08s.11,0,.11.11.15.19.11.34c.12,0,.15.19.23.26s0,0,0,.08,0,0,.11,0,0,.08.12.12,0,0-.08.07.08,0,.11,0,0,.08.12.12.07.11.11.18v.08c.15.08.26.3.38.41s.15.23.3.27c0,0,0,0,0,.07.19,0,.15.23.3.27v.07s.12,0,.12,0,.15.15.22.26,0,0,0,.08c.23,0,.27.26.45.34,0,0-.07,0,0,.08s0,0,.07,0,.15.11.15.22h.08s0,.08,0,.12h.11v.07c.15,0,.19.19.34.19.07.15.26.19.34.38,0,0,.07.07.11,0a.09.09,0,0,0,0,.07s0,0,.07,0,.08.08.08.15c.19,0,.15.19.3.19,0,0,0,0,0,.08s.15,0,.15.07c.15.08.3.19.45.27s0,0,0,0a4.7,4.7,0,0,0,1.09.49s0,0,.08,0,.07,0,.11.08.49,0,.6-.08.08,0,.12,0,.22,0,.37-.11.23-.08.27-.19h.11s0-.08,0-.08c.19,0,.23-.11.34-.18s.23-.19.41-.19c0-.12.12-.12.19-.15s0-.08.12-.08c.07-.26.37-.3.52-.53,0,0,0,0,.08,0a.1.1,0,0,1,.11-.11s0,0,0-.08c.23,0,.23-.26.45-.3,0-.11.08-.19.19-.22s.08-.12.15-.12a.35.35,0,0,1,.19-.19s0,0,0-.07,0,0,.12,0v-.08c.19,0,.15-.26.34-.26a.24.24,0,0,1,.18-.23c0-.11.08-.11.12-.15s.07-.18.19-.22.18-.19.22-.34c0,0,.08,0,.12,0s.11-.11.11-.26.38-.3.38-.53c0,0,.07,0,.11,0v-.07c.07,0,.11-.08.11-.15.23,0,.12-.34.3-.42-.07,0,0-.07.08-.15s0-.19.07-.19,0,0,.08,0v-.11a0,0,0,0,0,0,0v-.07a4.6,4.6,0,0,0,.41-.76H170s0,0,0-.07,0-.23.15-.27,0-.15.11-.15,0,0,0-.07.15-.15.07-.27c.08,0,.08-.18.19-.22v-.12h.08c0-.15.11-.22.07-.37s.15-.15.08-.23,0-.07.07,0,0-.11,0-.22,0,0,.08,0c-.12-.12,0-.27,0-.34s0-.15,0-.15v-.12s0,0,.08,0c0-.34.15-.53.11-.87,0,0,0,0,.08,0s-.08,0,0-.11.15,0,.15-.08-.07,0-.11,0,0-.22.07-.34,0,0,0-.11,0,0,.07,0c0-.11,0-.19,0-.3a0,0,0,0,0,0,0,.21.21,0,0,0,0-.15.77.77,0,0,1,.11-.19s0,0-.07-.11-.08-.23.07-.3.08,0,.08,0-.08-.11-.11-.19,0,0,.07-.07-.07-.08-.07-.12,0-.22,0-.37.07,0,.07,0-.07,0-.07,0,0-.19,0-.27-.07,0-.07-.07a.09.09,0,0,1,.07-.08c-.07-.07,0-.18-.07-.22s0,0,.07-.08-.07-.11,0-.11-.07-.15,0-.19,0-.19,0-.34,0-.19-.11-.23,0-.07,0-.15-.08,0,0,0,0,0,0-.08a.08.08,0,0,0-.08-.07c0-.08,0-.08.08-.12s-.08,0-.08,0,0-.18-.07-.3a.35.35,0,0,0-.08-.34s.08,0,.08,0a.45.45,0,0,1-.11-.15s.07,0,.07-.12-.11,0-.11-.07,0-.19-.08-.3H171a1.38,1.38,0,0,1-.23-.65s0,0,0-.07,0,0-.08,0a.49.49,0,0,0-.11-.23c.08-.15-.07-.19,0-.34s-.07,0-.07,0,0,0,0-.11,0,0-.08,0a1,1,0,0,1,0-.34c-.11,0-.11-.11-.15-.19s-.19-.26-.23-.41v-.08s-.07,0-.07-.08,0,0,0-.07c-.16-.08-.16-.38-.31-.45,0,0,0-.12.08-.12s-.11-.07-.11-.18-.08,0-.15,0c.11-.19-.27-.23-.19-.45-.12,0-.12-.16-.23-.19s-.07-.15-.15-.19-.15-.19-.19-.34a.28.28,0,0,1-.22-.26c-.08,0-.08,0-.12-.08,0-.23-.22-.26-.34-.42v-.07c-.07,0-.11-.08-.19-.11s-.07-.12-.11-.15l-.15,0c.11-.07,0-.11,0-.19h-.08c0-.07-.11-.11-.11-.18s0,0-.07,0-.12-.11-.12-.22a2.62,2.62,0,0,1-.64-.42,0,0,0,0,1,0-.07h-.15c0-.15-.15-.12-.19-.27,0,0-.11-.07-.19,0s0,0,0-.08H166s0,0,0-.07c-.15,0-.22-.16-.3-.27a.62.62,0,0,1-.41-.22c-.23,0-.23-.23-.45-.16-.12-.11-.27-.07-.38-.22,0,0,0,0-.08,0l-.11-.12a1,1,0,0,1-.45-.15s0,0-.08,0-.34,0-.38-.15c0,0-.07.07-.18,0m6.22,4.15s.07,0,.07,0h-.07v0M155,152.3h0s-.08,0-.08,0,.08,0,.08,0m14.28,4.33h-.07c0,.08.07,0,.07,0m-1.17,1.44a0,0,0,0,0-.07,0s.07,0,.07,0"></path><path class="cls-8" d="M163.16,137.41a.28.28,0,0,1-.15.15s0,.11,0,.11,0,0,.07,0v.11c.19.08.26-.15.45-.22,0,0,0,.07.08,0,0,.12-.08.12-.11.19a.68.68,0,0,0,.11.3c-.11.08-.27,0-.38-.07s-.15,0-.19.15.19.11.19.26a0,0,0,0,0,0,0,3.39,3.39,0,0,1-.64,0c0-.15.19-.23.19-.38l-.11-.11s0,0-.08,0v.07c-.11,0-.26.15-.34,0s.08,0,0-.07,0-.15,0-.15c-.08,0,0-.23-.11-.27s.07-.07.11-.11.23.07.19.19c.07,0,.19.07.26,0a.07.07,0,0,1,0-.12c0-.07-.07,0-.07-.11s-.08,0-.12,0,.08-.07.12-.11.26,0,.41,0,.08,0,.11,0"></path><path class="cls-8" d="M164.94,138.54c-.12,0-.12.07-.12.19-.22.15-.45,0-.6-.15,0,0,0-.08,0-.12s.19-.45.37-.37.12.18.23.18c0,.12.08.16.08.27m-.61-.15a.32.32,0,0,1,.15-.08l0,0s0-.08,0-.11-.15,0-.15.15m.38,0s.08,0,.08-.08-.08,0-.08,0v.08m-.38.11a.09.09,0,0,0,.08-.08h0s-.08,0,0,.08m.27,0v.07h.11v-.11a.12.12,0,0,0-.11,0"></path><path class="cls-8" d="M161.66,138.27a.14.14,0,0,1,0,.08c.15.23-.08.34-.27.45s-.22-.07-.33-.11-.08-.26,0-.45a.74.74,0,0,1,.49-.12c0,.12.11.12.15.15m-.64.16c.07,0,0,.07.07.07s.08-.19.19-.19.11.08.15,0a.25.25,0,0,0-.41.12m.37.18s0,0,0,0a.19.19,0,0,0,.08-.15l0,0s0,.08-.08.15m-.15,0s0-.07-.11-.07.07.11.11.07"></path><path class="cls-8" d="M158.38,142.61a.08.08,0,0,0,.07.08s0,0,0-.08-.11,0-.11,0-.08-.08-.08-.15.11,0,.08-.15.15,0,.26,0-.08-.07-.11-.11,0-.12,0-.12-.07,0-.07,0,.19-.12.26-.23c-.11-.07,0-.15,0-.23.12,0,.12-.07.19-.07,0-.3.27-.34.49-.42,0-.07-.07,0-.15,0,0-.15.15-.15.3-.18a.2.2,0,0,1-.07-.15s0,0,.07,0,.12-.12.23-.12,0-.15,0-.22a2.17,2.17,0,0,0,.26-.12c0-.11.08-.15.08-.26.07.08.11,0,.22,0s0-.07,0-.11.23-.08.34-.12c-.07-.26.34-.18.34-.41.08,0,.19-.08.34-.08,0-.11.11-.11.15-.18.23,0,.26-.12.42-.19s.07,0,.11,0a.36.36,0,0,1,.45-.19c0-.08,0-.12,0-.12s.41,0,.34.23c.11.08.19-.11.34-.08s.07.12.15.12a.46.46,0,0,1-.23.34c-.07,0-.19-.08-.22-.19s.07,0,.07-.08-.07,0-.07,0c-.16.07-.23.15-.38.07s0,.08-.08.15a1.11,1.11,0,0,1-.34,0s0,0,0,.12-.49,0-.41.26c-.08,0-.15.08-.23,0a.34.34,0,0,1-.41.19s0,0,0,.07,0,.08-.08.08-.11,0-.19,0-.18.34-.45.3c.08.07,0,.15,0,.26s-.15,0-.18,0,0,.18,0,.22-.08,0-.12.08,0,0-.07,0l0,0c.15,0,.19.11.34.15s0-.08.07-.08.08,0,.15,0c0,.15.31.27.34.46s.08.07,0,.11,0,0,0,.07,0,.38,0,.49h-.07s0,.15-.11.12v.11a.21.21,0,0,0-.16.08,1.17,1.17,0,0,1-.37,0c0-.08-.15-.15-.19-.27s0-.15.07-.18,0,0-.07,0,.19-.12.26-.23h.12s0,0,0,.08.11,0,.11,0-.22.27,0,.27.11-.15.19-.23,0-.15-.11-.19,0,0,0-.11-.15,0-.15-.11-.15,0-.26,0,0,0,0,.07a.72.72,0,0,0-.45.34l0,0a.4.4,0,0,0-.08.38s-.07,0-.11.07,0,.15.07.23-.07.07-.07.11-.08-.19,0-.19c-.08-.11,0-.22,0-.34s0,0,.08,0-.08,0,0-.12.07,0,.11-.07,0-.19.12-.19c.07-.23.3-.34.49-.45a.15.15,0,0,1,.07,0l.15,0a.94.94,0,0,1,.3.26c0,.15,0,.19.08.34s-.08,0-.08.15-.15,0-.15.11c-.15,0-.19-.07-.34-.07s0-.11,0-.19-.07,0-.11,0,0,.11,0,.19.26.26.41.15a.65.65,0,0,0,.12-.15.74.74,0,0,0,.26-.38c0-.08-.11-.23-.07-.3s-.15-.08-.19-.19h-.08s0,0,0-.08c-.19,0-.34,0-.53,0a.49.49,0,0,1-.3.18v.08a.69.69,0,0,0-.3.53c-.07,0,0,0-.07,0s0,0,0,.11,0,.07-.07.07v.42s0,0-.08,0a.11.11,0,0,1,0,.15.3.3,0,0,1,.15.07s0-.15.15-.11,0,.23.16.27,0,.22,0,.37c0,0,0,0-.12,0-.07.19-.15.34,0,.49-.15.11.15.41-.12.53a1.12,1.12,0,0,1,0,.71,2.22,2.22,0,0,1,0,.46.11.11,0,0,0-.11.07.18.18,0,0,1-.07-.15s0,0,.07,0,0-.07,0-.07-.07,0-.07-.08,0,0,.07-.07,0-.27,0-.46h0s-.08,0-.08-.07,0-.64.12-.83c-.08,0,0-.19,0-.26s.07,0,.07-.12-.07,0-.11-.07-.07.11-.11.15,0,.15.07.19a.3.3,0,0,0,0,.34s-.07,0-.07.07-.08.19,0,.23-.08.26,0,.3,0,.11,0,.15,0,0,0,.08,0,.11-.11.15.08,0,0,.11-.08.08-.08.11.08.15.08.27-.08,0-.08.07,0,.15,0,.19c.12.08-.07.23.08.3,0,.08-.08.19,0,.23s0,0,0,.07,0,0,0,.08-.08,0-.08.11.08.08,0,.15a.12.12,0,0,0-.11,0,.08.08,0,0,0-.08-.07.09.09,0,0,1,.08-.08c0-.15,0-.26,0-.38s0-.15,0-.19-.08-.15,0-.26l0,0a1.52,1.52,0,0,0,0-.37s0,0,0-.08a.08.08,0,0,1,.07-.07.4.4,0,0,1,0-.34c0-.08-.07,0,0-.08s.15,0,.15-.07-.08,0-.12,0,0-.08.08-.12-.08,0-.08-.11,0,0,.08-.07c0-.23,0-.38,0-.61h0s-.08-.07-.08-.11c.08-.23-.11-.3-.07-.49,0,0,0,0,0,0s.11-.11.08-.22h.07a.34.34,0,0,0,0-.19l0,0c0-.08-.12-.11-.15-.19s.15-.11.19-.19,0-.22-.12-.22,0-.08,0-.08a.24.24,0,0,0-.19.08s-.11.15-.11.15.11.07.08.15-.12.07-.23.07,0,.15,0,.23-.08,0-.12,0,0,.07,0,.11-.15,0-.18.08,0,0,.07.07,0,.11,0,.19-.22,0-.22.11.07,0,.11.12-.15.15-.23.26a.24.24,0,0,1-.18.41c.11.12.11.38-.08.38,0,0,0,.08-.07.08s.15,0,.15.15-.08,0-.08.11-.11.08-.19.15,0,0,.08,0,0,.19,0,.23h-.08c-.07.15-.26,0-.3-.12s.12-.07.12-.19a.1.1,0,0,0,.11-.11s0,0-.08-.08,0-.11.08-.11-.08,0,0-.11.15,0,.23-.08l-.12-.11c0-.08.08-.11,0-.19s.19,0,.23-.11a.26.26,0,0,1,.07-.38v-.11s0,0-.07,0c0-.19.15-.23.3-.3,0-.08-.08-.08-.11-.11s.11-.15.15-.27c.11.12.15.08.19,0m4.44-3.73s0,0,0-.08h-.07s0,.08,0,.08m-.45.07s0,0,0,.08a.09.09,0,0,0,.08-.08.09.09,0,0,0-.12,0m.79.08h.19c0-.15-.11,0-.19,0m-1.16.15s.07,0,.07,0,0-.07-.07-.07Zm-.72.34a.1.1,0,0,0,.11.11c0-.07,0-.19-.11-.11m-.34.22a.07.07,0,0,0,.11,0s-.11,0-.11,0m-.34.23a0,0,0,0,1,0,0c.07,0,.07,0,.11,0s-.07,0-.11-.11a.13.13,0,0,0,0,.11m-.3.26h.11s0-.11-.11-.07,0,0,0,.07m-.3.19v.08s.07,0,.15,0-.08-.19-.15-.12m-.23.38c.08,0,.11-.07,0-.07s-.08,0,0,.07m-.3.57s.07,0,.07,0,0,0-.07,0m-.26.11s0,0,.07,0v-.08h-.11v0Zm0,.26a.29.29,0,0,0,.15,0s0-.12-.12-.08,0,0,0,.11m-.31,0c.08,0,.15,0,.12-.07s-.12,0-.12.07m-.41.76s0,0,.07,0v-.11c-.07,0-.07,0-.07.08m.72.41c.11,0,.22,0,.26,0s-.23-.11-.26,0m-.91,0h0s0,0,0-.07-.08,0,0,.07m1.06.19a.09.09,0,0,0-.15.08h.33s0,0,0-.08-.19,0-.22,0m-1.25.15s0,.08.08,0,0-.08-.08,0m-.15.45s0,0,0,.08h.07c0-.08-.07-.08,0-.15s0,0-.08.07m-.15.38c0,.08.08.08.11.08s0,0,0-.08-.07,0-.11,0m-.26.91a.14.14,0,0,0,.11,0c-.08,0-.15,0-.11,0"></path><path class="cls-8" d="M166.41,139.25c.07,0,0,0,.11,0s0,.07,0,.15,0,0-.08,0c0,.15-.18.3-.22.11,0,0,.07,0,.07-.11s-.07-.08-.11-.08a.23.23,0,0,0-.41-.15c.11.11.11.3.3.38,0,0,0,.11.07.11s0,.15,0,.23.3,0,.27-.12h.11c0-.11.07-.11.07-.22.08.07.19.11.23.19s.19,0,.19.15-.19,0-.19.07c-.19,0-.3.23-.53.12a.21.21,0,0,1-.19,0s0,0,0,.07-.23.15-.34,0c0,0,0,0-.12,0s0-.11-.11-.07,0,0,0-.08-.07,0-.07,0c0-.19-.19-.15-.34-.19.07,0,0,0,0-.11l.15-.15v-.15c.07,0,.15-.12.22,0s0,0,0,.08c.15,0,0,.11,0,.26s.08,0,.08,0c-.08.15.15.26.26.23s-.15-.08-.15-.19l0,0c.08,0,.08.07.11.07h0c0-.15-.19-.22-.26-.33a.26.26,0,0,0-.08-.19v-.08s0,0-.07-.07,0,0,.07,0a.21.21,0,0,0,0-.15.84.84,0,0,1,.95.37"></path><path class="cls-8" d="M159,139.44c.07,0,0,.12,0,.15a.14.14,0,0,1,.11,0s0,.11.08.11c-.08.12-.27,0-.38.08s-.19.15-.19.26.08,0,.08.08c.15,0,.33-.3.49-.15s0,0,.07,0a.21.21,0,0,1,.15,0,.41.41,0,0,0,.19.15s0,0,0,.07.08.27,0,.31-.11.22-.22.3,0,0,0,0-.11.08-.15.15-.11-.07-.15-.19-.11,0-.11-.11.07,0,.11,0c.19.15.6,0,.49-.34-.08-.07-.26-.11-.3,0s0,0,0,.08-.15.15-.3.15-.11,0-.19,0c0-.15-.19-.19-.23-.34,0,0,0,0,.08,0a1.09,1.09,0,0,1,.07-.3c.12,0,.16-.08.27-.08s.11-.26.19-.3"></path><path class="cls-8" d="M158.64,140.57s0,.12.08.12c0,.19.15.19.15.34h-.08a.31.31,0,0,1,0,.19h0c.15.15-.07.22-.11.37-.23,0-.42.12-.57-.07,0,0,0,0-.07,0s-.08-.07-.15-.07.07,0,.07-.08-.07,0-.11,0,0,0,0-.12-.08,0-.08,0,0-.16,0-.19,0-.19,0-.34.15,0,.15-.15.42,0,.68,0m-.75.16c0,.07,0,.15,0,.18s0,0,0,.08a.15.15,0,0,0,.15.07c0,.12.07.19.15.23s.11.08.11.15,0,0,0,.08c.18,0,.41,0,.49-.15s-.08-.12,0-.19,0,0,0-.08-.08,0-.11-.07,0,0,0-.08-.12,0-.12-.11-.07,0-.15,0c0-.19-.22-.15-.37-.11"></path><path class="cls-8" d="M158.79,154.15v.07l0,0s-.08-.07-.08-.11,0-.07,0-.07-.07,0-.07,0,.07-.19,0-.3,0,0,0-.08.12,0,.19,0l-.11.11a.41.41,0,0,1,0,.23h-.08c.08,0,.08.19.11.26s0,.15-.11.27.15,0,.11.11,0-.11.08-.15,0,0-.08,0a.08.08,0,0,1,.08-.07s0,0-.08,0c0-.15,0-.23.08-.34s0,0,0,0,0-.23.08-.34.07.08.11.11-.08.08-.08.15a.42.42,0,0,1,0,.38c.08.11,0,.15.08.27s.15-.08.08-.12a.17.17,0,0,1,.15-.07s0,0,0-.08c.19-.22.53-.34.71-.6v-.11s0,0,.08-.08l-.11-.11s0,0,.07-.08a.08.08,0,0,0-.07-.07c.07-.08,0-.23,0-.31s0-.22,0-.33,0-.42,0-.53,0,0-.07-.08,0-.38.07-.49,0-.11-.07-.19.07-.07.11-.11,0,0-.07,0,0-.22.07-.3,0,0,0-.07,0,0,.08,0,0-.12-.08-.12,0-.15,0-.18,0,0-.07,0,0-.12,0-.23h.07a.1.1,0,0,1-.07,0c0-.07,0-.19,0-.22s0-.08.07-.12a0,0,0,0,0,0,0c.07-.08,0-.31,0-.42a.21.21,0,0,0,0-.19c0-.07.11-.26,0-.37s0,0,0,0a.45.45,0,0,1,0-.42c-.15-.11,0-.19,0-.34-.15-.11,0-.3-.11-.41a.37.37,0,0,0,.07-.19s-.07,0-.07-.11,0-.12.11-.19-.07,0-.11,0,0,0,.07,0-.07-.11,0-.19c-.12-.07-.15-.19-.3-.26,0-.08,0-.11,0-.11s0,0,.07-.08,0,0,0-.08a1.06,1.06,0,0,0,.18-.37.28.28,0,0,0,.19-.08c.23,0,.49,0,.57.15.11,0,.11.15.19.19s-.08.15,0,.15c0,.15-.15.23-.15.42-.12,0-.12.07-.19.07s.07-.11,0-.19.07-.15.15-.22c-.08,0,0-.08,0-.15s0,0-.08,0,0-.15-.07-.19-.34-.15-.38.08c0,.07.15.07.26.07s-.07.08-.15.08,0,.07,0,.11a1.18,1.18,0,0,1,.18.11,2,2,0,0,0-.11.38s0,.08.08.11,0,.12-.08.19h.08a.19.19,0,0,1-.08.15.14.14,0,0,1,.08,0c-.08.15,0,.38,0,.57.11,0,.07-.12.15-.16s0-.07,0-.11c.11-.19,0-.34,0-.56s-.08,0,0-.12,0,0,0-.07-.08,0-.08,0,.08,0,.19-.08c-.08.12,0,.27,0,.38s0,0,0,.08,0,.22,0,.37.3,0,.38,0,0,0,.08-.07a1.05,1.05,0,0,0,.37,0,.14.14,0,0,0,0-.11c0-.08-.08-.08-.08-.16s0,0,.08-.07,0,0-.08,0-.11-.22,0-.3,0-.11-.11-.15,0-.15-.07-.19,0,0,0-.07a.32.32,0,0,1-.11-.27s0,0-.07,0,0-.07,0-.11a.89.89,0,0,0-.15-.53c0-.11,0-.19-.08-.22s0-.08,0-.12-.08,0-.08,0,0-.15,0-.23,0,0-.07,0a.28.28,0,0,1,0-.19c-.16-.18,0-.49-.12-.64,0,0,.08,0,.12-.11a1.49,1.49,0,0,1-.08-.23c.15,0,.08-.11,0-.19h.11c0-.07,0-.11,0-.15a.09.09,0,0,1,.08-.07.28.28,0,0,1,.15-.27s0,0,0-.11,0,0,.08,0,0,0,0-.07,0,0,.08,0,.11-.26.11-.38,0-.18,0-.26a.3.3,0,0,1-.08-.3c.15-.08.3-.15.26-.34.08,0,.16-.11.16-.19s.15-.11.22-.11,0,0-.07-.08a.65.65,0,0,1,.26-.49c-.08-.15.19-.19.15-.38.11,0,.15-.18.26-.22v-.15a2.5,2.5,0,0,1,.34-.27c.34-.07.46.27.76.19a.4.4,0,0,0,.26.08s0,0,0,.07.15,0,.15.08.08,0,.08,0a2.14,2.14,0,0,1,.37.72s0,0-.07,0,0,0,0,0-.15.12-.11.27h-.07c0,.07,0,.11,0,.15s0,0-.08,0,0,.11,0,.15,0,0,0,.08a1.12,1.12,0,0,1-.15.71s-.11,0-.15,0l-.11.23c0,.07,0,.11,0,.19s-.19.15-.31.15-.18,0-.18.11a.7.7,0,0,0,.41.11v.19s0,0,0,0,.08.08.12.08,0,.07.11.07.07.19.19.19,0,.07,0,.07a.14.14,0,0,0,.08,0s0,.12.07.12,0,.07.08.07c-.08.19.11.23.11.38s0,0-.08.07.08.08.12,0c-.08.11.07.3,0,.34s.07.08.11.15,0,.27,0,.38,0,.3.19.26c-.07-.07.08-.15,0-.22.12,0,.12-.12.08-.19s.11-.19.19-.27.19,0,.19-.07c.11.07.18-.15.3,0a.21.21,0,0,1,.22-.11c.23-.19.57-.27.72-.49,0,0,.11,0,.11,0l.61-.38s.07,0,.15,0c0,.15.19.15.34.19s.11.19.11.26.15.12.07.19,0,0,.08,0,0,.22.11.26a.26.26,0,0,0,.15.3s0,0,0,.08a5.4,5.4,0,0,0,.27.49s0,0,.07,0,0,.11,0,.11,0,.19.11.27v.15h.12c-.08.22.22.3.19.49s.26.07.22-.08a.25.25,0,0,1,.34.19s-.11,0-.07.11c-.15.19-.31,0-.46,0s0,0,0,.08a.17.17,0,0,1-.15.07c-.11.08-.15.19-.3.19v.08c-.23,0-.3.19-.53.22,0,0,0,.08-.07.12s-.19,0-.27.11a.16.16,0,0,0-.18.11.27.27,0,0,0-.23.12s-.08,0-.15,0-.11.11-.19.19c-.15-.08-.19.11-.34.11l0,0h-.19c-.07-.08-.07-.19-.15-.27a2.56,2.56,0,0,0-.75.15v.3s0,0-.08,0c0,.12.08.27,0,.27.11.07,0,.26.11.38a.21.21,0,0,0,0,.26.78.78,0,0,0-.08.49,1.55,1.55,0,0,0,0,.68h-.07c0,.19.07.38,0,.49.08.15,0,.26-.07.38H165a.45.45,0,0,1-.11.33c.11.08,0,.27,0,.38l0,.08c0,.07-.11.11-.11.19s0,.15,0,.18.08.16.11.19,0,0,0,.08h0a.63.63,0,0,1-.18.53.08.08,0,0,0,.07.07v.11c.3.08.6,0,.91,0,.15,0,.3,0,.33.12.12-.08.12.11.23.11s0,0,0,.11.26.38.42.57a.2.2,0,0,1-.08.15s.08,0,0,.07,0,.23,0,.3-.19.19-.3.23,0,0-.08-.07a.13.13,0,0,1-.19,0,1.56,1.56,0,0,1-.75,0,3.39,3.39,0,0,1-.64,0c-.08,0-.15,0-.19.08s0,0-.07-.08-.12,0-.16.08,0,0-.07,0c-.23.11-.49-.08-.75,0,0,0,0,0-.08,0a.5.5,0,0,1-.34,0,7.86,7.86,0,0,0-.87.07c-.18-.11-.56.15-.75-.07-.23.07-.41,0-.64.07-.11-.11-.45,0-.6-.07s-.23,0-.46,0c0,0,0,0,0-.08s-.19,0-.31,0-.11.15-.18.07-.08,0-.08.08,0,0,.11,0,0-.08,0-.08a.14.14,0,0,1,.08,0c0,.07,0,.07-.08.11s-.19,0-.26,0a.16.16,0,0,0,0-.18c.11-.12.26-.08.34-.19-.11,0-.11-.19-.15-.27s-.08,0-.12,0,0,.08.12.08-.15.15-.12.26c-.18,0-.37,0-.33-.23,0,0,.07,0,.11-.07s0-.08,0-.11c-.11,0-.19,0-.27,0s0-.08-.07-.11.07,0,.07-.12a2.68,2.68,0,0,0,.31-.11.17.17,0,0,1,0-.19h-.08Zm3.81-14.37c.07,0,.11,0,.11.12a.44.44,0,0,1-.22.07.28.28,0,0,1-.23.26c0,.19.19.08.26.12v0c0,.07-.07.07-.11.15.34.11.64-.15,1-.15,0,0,0-.08.11-.08a1.77,1.77,0,0,0,.46,0c-.08-.26-.42-.34-.68-.41a.51.51,0,0,1-.46-.16c-.07,0-.18-.07-.22,0m1.39.64c-.45,0-.83.23-1.28.19,0,0-.11,0-.11.08s0,.15,0,.22a.09.09,0,0,1,.07.08h.11c0,.15.12.19,0,.3s.08,0,.12,0a2.25,2.25,0,0,0,0-.45s.11,0,.15-.08-.08,0,0-.11a4.47,4.47,0,0,1,.75,0s0-.07,0-.07.34.07.34-.08c-.11.08-.15,0-.19,0m-1.62.31s-.15,0-.19,0,0,.08.08.08h0s0-.11.07-.11,0,0,.08.07,0-.07.11,0c0-.15-.15-.11-.19,0m-.22,0v-.08h-.08a.09.09,0,0,0,.08.08m1.24.15c0,.11-.15,0-.3.07s0,.19,0,.27.07,0,.07,0,0,0-.07,0c.07.15-.15.23-.11.38s-.08.07-.08.11-.11,0-.11.08.07,0,.07,0-.11.08-.11.15,0,0,.07,0a.17.17,0,0,1-.3,0s0,.08,0,.11a.09.09,0,0,0,.07,0c0,.08-.07.08-.11.08a.11.11,0,0,0-.19,0c.15,0,.23.15.34.22s.26.08.41.08.12,0,.12-.12-.23-.11-.27-.26h0v0a.35.35,0,0,1,.46.19c.15,0,.34.11.37-.07a.4.4,0,0,1,0-.19s0,0,0,0,0-.08,0-.15.08,0,.08,0-.08-.07,0-.15.19,0,.19.08H164c.12-.15,0-.34.12-.49s-.08,0-.08,0,.08-.3.15-.45c0,0-.07,0-.07,0s.07,0,0-.08a3.66,3.66,0,0,0-.75.08m-1.13.11s-.08.07,0,.07.08-.18,0-.07m-.34.15s0,.08,0,.11.15-.11.08-.19a.09.09,0,0,1-.08.08m.15.08c0,.07.11,0,.08,0s0,0-.08,0m.3,0a.08.08,0,0,0,.08-.07h-.08Zm-1.2.68c0,.08.15,0,.18.11s.16.16.12.27,0,0,0,0-.08,0-.08,0,.08.08,0,.15a1.43,1.43,0,0,0,.6.31c0-.12-.11-.08-.07-.19-.23,0-.31-.19-.23-.38-.08,0-.08-.07-.11-.15s-.19-.08-.15-.19a.3.3,0,0,0-.34,0m1.05.3v-.07c-.07,0-.07.07,0,.07m-.41.3s0,0,.11,0,.15.11.15.22.15-.07.3,0c0-.16-.22-.16-.26-.31a.4.4,0,0,0-.3.15m1.24.23a5.23,5.23,0,0,1-.79,0s.07,0,0,.07-.11,0-.19,0,.19.08.26.19c0,0,.16,0,.23-.11s.08,0,.11,0,.53.07.61-.12a.19.19,0,0,1-.12-.07s0,0-.07,0,0,0,0-.08m-1.88.34s0,0-.08,0-.11.15-.19.23,0,.07.12.07c.11-.15.18-.3.41-.34,0,0,0,.08.11.08s.23,0,.38,0,.08,0,.08.11,0,0,.07,0,0,0,.08.08c-.23.07-.27-.15-.53,0a1.22,1.22,0,0,0-.3.34s.07,0,.11,0c-.08.19-.23.41-.15.56.07,0,.19,0,.19,0s0,.34-.08.49,0,.08.08.11c-.15.12.07.23,0,.38a.2.2,0,0,1,.15.08s0,0,.11,0v0c0,.11-.19.07-.15.22s0,0-.07,0,0,.12,0,.15h.11c0,.08,0,.08,0,.12s0,0-.08,0,.08,0,.11.12,0,0-.07.07a.27.27,0,0,0,0,.19s-.08,0-.08.08a1,1,0,0,0,.15.22s.11,0,.11-.07a4.44,4.44,0,0,1,.08-.61s0,0,0,0-.08,0,0-.08.11,0,.11-.11a.09.09,0,0,1-.07-.08.2.2,0,0,0,.15-.07c0-.08-.08-.08-.08-.12s-.15,0-.19-.15,0,0,0,0,.27,0,.34.11-.07,0-.07,0,.07,0,.11,0,.07.16.19.16.11-.08.19-.12c-.08,0-.15-.15-.08-.22s-.11,0-.15,0,0-.15-.08-.19a.14.14,0,0,0,.08,0,.17.17,0,0,1,0-.19s0,0-.08-.07,0-.15,0-.27-.11-.3,0-.41,0,0-.07,0-.23-.38-.15-.56c.15.07.19.22.19.41.11,0,.11.19.26.23,0,.07,0,.19,0,.22s0,.23,0,.34.08,0,.08.08,0,0-.08,0-.07.07,0,.11.08,0,.08,0-.08,0,0,0,0,.3.08.41,0,0,0,.08.11,0,.22,0a2.25,2.25,0,0,0,.31-.15V145s0,0,.07,0,.08-.12,0-.19.08-.08.11-.08-.07,0-.07-.07h.07c0-.08,0-.08.08-.12v-.07c.11-.15.19-.38.34-.49s.19.11.23,0a.27.27,0,0,1-.16-.27c-.11,0-.07-.07,0-.11s-.08,0-.12-.08,0,0,0,0,0,.15,0,.27h0s-.12,0-.12,0v-.3s-.07,0-.07,0,0,0,.07,0c0-.15-.11-.22-.07-.41-.15,0-.23.11-.38.11s-.23,0-.34,0-.07,0,0-.11,0,0-.07.07c-.19-.07-.34,0-.49-.07-.19,0-.34-.15-.6-.15,0,.26-.34.15-.34.3m5.31.87h0c-.07,0-.07.11-.15.15s-.07,0-.07.07-.12,0-.19,0c-.3.34-.79.38-1.21.61.08,0,.19,0,.23.07s.19,0,.3,0,.15.08.26.08.23,0,.19.23c.12,0,.08.11.08.15H166c0,.11-.19.07-.26.15s-.42,0-.57.07c0,.08,0,.19.11.23a1,1,0,0,0,.27.49h0c.16-.11.38-.23.53-.34a.48.48,0,0,0,.34-.19s0,0,0,0,.11-.11.19-.19.26-.23.45-.19c0,.23-.34.19-.45.34,0,0,0,0-.08,0v.11c-.19.08-.3.27-.53.27,0,0,0,.07,0,.11s0,0-.12,0,0,.08-.07.15-.11.08-.11.12,0,0,.07,0,.11.15.08.3,0,0,.11,0a1.21,1.21,0,0,0,.11.3s.08,0,.08,0,0,0,0,.07a.33.33,0,0,1,.11.27c.08,0,.15.07.19,0a0,0,0,0,1,0,0c.12,0,.15-.19.34-.19a.43.43,0,0,1,.38-.15c0-.08.11-.08.15-.11s.23-.08.26-.16a2.46,2.46,0,0,0,.72-.37c-.07-.15-.07-.27-.23-.34a.64.64,0,0,0-.15-.34v-.08c-.15-.07-.07-.34-.26-.3v-.11c-.11,0-.11-.19-.19-.23s0,0,0-.07a.47.47,0,0,1-.15-.34.38.38,0,0,1-.15-.3.14.14,0,0,1-.08,0s0,0,0-.08c-.15,0-.19-.22-.26-.37s-.31.07-.42.15m-2.64.37c0,.12-.15.23,0,.34s.08,0,.12,0,0,.07.07,0,.11,0,.08-.07-.08,0-.08-.08,0-.22,0-.3a.12.12,0,0,1-.11,0,.19.19,0,0,1-.12.15m-2.52-.07s0-.08,0-.08-.08.12,0,.08m6,0c.08.07.08.15.12.26s.07.11.15.11c.07-.15-.19-.15-.08-.26-.11,0-.07-.19-.15-.23s0,.08,0,.12m-3.65.22s.07,0,0-.07.12,0,.08-.08-.15,0-.11.15m-.12.3s0,0-.07,0,0,.12-.08.19a.14.14,0,0,1-.11.19c0,.07.07.07.11.11v.12c.08,0,.08.07.19.07a1.28,1.28,0,0,1,.15-.23c.11,0,.19,0,.27,0s-.08-.12-.08-.27H164c0-.11-.19-.07-.22-.22s.11,0,.11-.08a.33.33,0,0,0-.19,0c0-.07,0-.07-.11-.15,0,.12-.11.23-.08.3m4.07.23s.08,0,.12,0,0-.11,0-.19-.08,0-.16,0,0-.08,0-.12,0,.19,0,.23m-2.9,0c.12,0,.08.11.12.19a.16.16,0,0,1-.19,0c-.08.11-.12.27-.23.34v.08c-.08,0-.08.07-.11.07,0,.19,0,.34,0,.49a2.63,2.63,0,0,1-.18.34s-.08,0-.08,0,0-.11,0-.11-.07,0-.11,0,0-.27,0-.34a.28.28,0,0,1-.08-.19c.08,0,.12,0,.12-.11h-.08c.12-.15.34-.15.34-.42-.11,0,0-.07,0-.11s0,0-.07,0v.08c-.11,0-.15.11-.23.19-.26-.08-.26.18-.49.18,0,.15-.15.19-.19.31h-.07a.41.41,0,0,1-.19.18c0,.12-.08.12-.19.15s-.11.08-.11.19.07,0,.07.08,0,0,0,.07a.14.14,0,0,1,.11,0c-.08.08.07.19,0,.27a.37.37,0,0,1,.11.33s.08,0,.08,0,0,.15.07.19,0,.15,0,.15,0,.08,0,.11.08,0,.11,0,0,.12,0,.15.12,0,.15,0,.34,0,.46-.15c.3,0,.49-.11.75-.11.08-.15.38,0,.42-.19,0,0-.08,0-.08,0a.16.16,0,0,1,.08,0c0-.16-.08-.16-.15-.16s0,.19-.08.23,0,0,0-.07-.07.11-.11.11a.09.09,0,0,1-.08-.08s0,0,.08,0,0-.12,0-.16-.08-.11-.12-.11,0-.07,0-.11,0-.11-.11-.11,0,.11-.08.11-.07,0,0,0c0-.19.16-.34.19-.53,0,0,0,0,.08,0s0-.12,0-.19.07,0,.11,0-.07-.23-.19-.19-.11-.07,0-.19-.08,0-.08,0,.08,0,.11-.07.08,0,.08.11.07.12.15.12,0-.12.15-.12c0-.26.19-.41.38-.56-.08,0-.19-.08-.19-.15s.07,0,.07,0-.07,0-.15,0V145s.08,0,.08-.07a.33.33,0,0,0-.38.11m3,.11s.15.08.11,0h-.07s.07-.08,0-.08,0,0,0,.11m-4.68.23s0,.08-.07.08,0,0-.08,0-.11.15-.22.11c-.12.15-.38,0-.49.19a2.8,2.8,0,0,0-.08.56s.11,0,.11,0,0,.08-.07.15.3,0,.38,0,.11-.19.22-.19c.08-.15,0-.18-.07-.3l.15,0s0,.07,0,.11a.17.17,0,0,0,.19,0,.53.53,0,0,0-.08-.23c.08,0,.11,0,.23,0s0-.07,0-.11,0,0,.07-.08l.12.12s.07,0,.11-.08-.26-.22-.38-.3m5.05.34h0s.08,0,.08,0,0,0-.08,0Zm-6.67.15h0v-.08s0,0,0,.08m6.71,0s0,0,.08.08,0-.08,0-.12,0,0-.08,0m.27.49c.11-.11-.12-.26-.19-.34a.94.94,0,0,0,.19.34m-3.51-.07c.08,0,.08,0,.11.07s0,0,0,0a.14.14,0,0,1,.11,0s0,0,0,.11h.07c0,.08,0,.11-.07.11s0,0,.07.08l-.07.07s0,0,.07,0,0,.19,0,.19c.08.18,0,.33.08.49s-.08,0-.08,0a1,1,0,0,0,.49,0c0-.07.08-.07.16,0a.17.17,0,0,1-.08-.15s-.11,0-.11-.11,0-.08,0-.11-.11-.08-.11-.19-.15-.12-.11-.19-.08-.08,0-.11h-.11c0-.08,0-.12.07-.12h-.11a1.44,1.44,0,0,0-.26-.37c-.08,0,0,.07-.08.15m-.79-.08s0,.11,0,.15,0,0,.11,0,0,0,0-.11h-.11m4.26.27c0,.11-.11.22-.23.22a2.64,2.64,0,0,1-1,.57s0,0,0,0,0,0-.07,0a.09.09,0,0,1-.15.07c0,.19-.27.15-.34.27s-.3-.19-.42,0c.12,0,.08.15.16.22s.26-.07.41-.11.34-.15.45-.3c0,0,.08,0,.12,0a.39.39,0,0,1,.15-.12c.11,0,.15-.07.18-.11a1.16,1.16,0,0,0,.38-.26c.19,0,.23-.15.38-.12,0,0,0,0,0,0s.08-.12.23-.12c0-.11,0-.26-.12-.34a.2.2,0,0,1-.07.16m.56.22s.08,0,.16,0,0-.11,0-.19h-.08a.1.1,0,0,0,0,.15m-4-.07h-.07s.07,0,.07,0m-2.64.15c.11,0,0,.15,0,.19s0,0,0,0,0,.38-.08.46-.11-.08-.18,0,0,.07,0,.11.15.08.3.08c0,.15.16.07.12.22s.07,0,.07,0,0,.15.08.23a.36.36,0,0,1,.19,0c.07-.07.15,0,.26-.15,0,0,0-.07,0-.15s-.07-.11-.15-.15,0,.08-.08.11,0,0-.07-.07c.11-.08,0-.23,0-.3s-.08-.08-.08-.15-.07,0-.07,0a.18.18,0,0,0,0-.23c-.07,0,0,.08-.07.12s-.08,0-.16,0,0-.11,0-.19-.07,0-.07,0,.11-.11.11-.22a.32.32,0,0,0-.19.15m2.26.11s.08-.08.08-.11-.15.07-.08.11m-2.33.15h.07c0-.07-.07-.07-.07,0m2.52,0s0,0,.08,0-.08,0-.08,0m.91.68c.07,0,.15,0,.15-.08s-.12,0-.15.08m-.53.11s0,0-.08,0,0,.08-.11.08,0-.08-.07,0,0,0,0,.08c.15,0,.26-.15.45-.08,0,0,0,0,0-.07s.22,0,.22-.08c-.11,0-.34,0-.45.15m-3,0s-.07,0-.15,0,.12.08,0,.16a.59.59,0,0,0,.23,0v.15s0,0-.12,0,.08.08.12.12-.12.15-.15.22.07,0,.07.08a0,0,0,0,0,0,0s.12,0,.15.07-.07,0-.11.08.08,0,.08.11-.15,0-.15.15.11,0,.11,0-.11.08-.15.11.15,0,.15.08-.19,0-.23.11.15,0,.19.08-.11,0-.11.11.19.19.07.27c0,0,0,0,.08.07a.2.2,0,0,1-.15.08c0,.07.15,0,.19.11s0,.15,0,.19,0,0-.12,0,0,.07.08.11,0,.22,0,.3-.08.08,0,.15c-.3,0-.38-.11-.6-.11,0,.19.3.11.33.3.12,0,.23.23.31.07s-.08,0-.08-.07.23-.11.34-.08,0-.07.08-.15-.12-.11-.16-.19.08-.11.16-.15a.49.49,0,0,0-.08-.22s.08,0,.08-.08-.08-.19-.19-.22v0c.07,0,.11-.08.15-.08s0-.11,0-.19-.12-.22-.19-.33.11-.08.15-.12a.28.28,0,0,1,0-.19c0-.15,0-.3-.12-.37,0,0,0,0,0-.08s.15-.11.23-.11c-.08-.11-.15-.08-.19-.19h.08s0-.08,0-.15-.08,0-.08-.11-.19-.12-.3-.16,0,0-.08,0m3.85,0s.07,0,.07,0l-.07,0Zm-1.4.16a.43.43,0,0,0-.37.07c-.12,0-.27,0-.31.08s-.07,0-.11,0,.11,0,.15,0a.82.82,0,0,0,.57-.11c0,.08.15.08.22.08s0-.08,0-.08.12,0,.12-.07-.19-.08-.27,0m-3.84,0V148s.19,0,.19-.07-.15,0-.19,0m-.27,2.3s0,0-.07,0c.15-.15,0-.38.11-.57-.11,0,0-.18,0-.3s.08,0,.08,0a.4.4,0,0,1,0-.42c-.08-.07,0-.23-.08-.3,0,0,0,0,.08-.08s.07-.41-.15-.37c0,.07-.08.07,0,.22s0,.15,0,.27,0,0,.07,0-.07,0-.07.08,0,.26,0,.3a.48.48,0,0,1,0,.45.15.15,0,0,1,0,.12s0,0-.08,0,0,.08,0,.16,0,0-.08,0a.27.27,0,0,1,0,.3s0,0,.08,0,0,.19,0,.27-.08,0-.08.07.08,0,.08.08-.08,0-.12,0,.12.08.12.16l-.08.07c0,.08,0,.19,0,.23a.17.17,0,0,1,.08.15s-.08.07-.08.11.08,0,.08,0a2.37,2.37,0,0,1,0,.53h0c0,.07.08,0,.08.07s-.08,0-.08,0,0,.15,0,.27a.22.22,0,0,1,0,.3.16.16,0,0,1,0,.19c.11,0,.08.11.15.07s0,0-.07-.07a3.42,3.42,0,0,1,0-.64c0-.08-.08-.08,0-.12s0-.19,0-.3.07,0,.11,0a2.38,2.38,0,0,0,.07.72c-.18.19,0,.38-.07.56,0,.16,0,.27,0,.46,0,0,0,0,0,0s0,0,0,.08-.08,0-.08.08,0,.11.08.18h-.08c0,.08,0,0,0,.12s-.26,0-.38,0-.22.15-.26.3c-.08,0-.23.07-.27.15s0,0,.08,0,0-.08.08-.08.07,0,.11,0,.11-.11.19-.15.07,0,.07,0-.19,0-.15.11.3,0,.3-.11h-.07s0,0,0,0a.57.57,0,0,0,.26,0v.07a.59.59,0,0,1,.26,0v.07s.12,0,.15,0,.12.08.12.16.11,0,.19,0a.08.08,0,0,0,.07.07c0,.08-.07,0,0,.11a1.74,1.74,0,0,0,.64,0v.08c.31,0,.61.07.91,0,0,0,0,0,.07,0s.27,0,.38,0,0,0,0-.08h.19c.07,0,.15-.11.22-.11.23,0,.61-.08.83.07,0,0,0,.08,0,.12h1s0-.08.08-.12a.76.76,0,0,1,.26,0s0-.07.08-.07.34.07.38-.08.22,0,.22.12,0,0,.11,0,0-.15,0-.19-.07-.3-.26-.42,0,0,0,0-.15,0-.07-.16c-.16-.07-.23-.26-.42-.26,0,0-.07,0-.11-.07h-.08s0,0-.11,0-.26,0-.3,0-.23,0-.27,0v.15s0,0,.08,0,0,0,0,.07.07.19.19.19c0,.08.07.08,0,.23,0,0,.07,0,.07,0s0,.12,0,.15-.08,0-.11,0-.27-.11-.16-.26c-.11,0-.15-.08-.18-.19s0,0,0,0a.73.73,0,0,1-.11-.15c-.11,0-.19.11-.3.08V154c.07,0,.07.07.07.15.23,0,.19.26.42.26,0,0,0,.08,0,.08s.07,0,.15,0,0,0,0,.07-.23.08-.38.08a.27.27,0,0,0-.27-.15.92.92,0,0,0-.18-.34s-.08,0-.08,0,0,0,0-.07-.08,0-.08,0,.08,0,0-.08-.26-.23-.23-.34a.69.69,0,0,0-.71,0s0,0,0,.07-.08.23-.16.27c.16.19-.15.3-.11.45-.19.08-.34.49-.64.26,0-.07,0-.11,0-.18s0-.08,0-.12a.13.13,0,0,0-.11,0c0,.12-.12.16-.27.16s-.15-.12-.18-.16a1.13,1.13,0,0,1,.07-.18c-.07-.12.08-.38,0-.49s.08-.08,0-.15-.45.11-.56-.08a1.23,1.23,0,0,1-.46.08h-.26c-.11,0-.08-.12,0-.19.34.19.79,0,1.13.07a.07.07,0,0,0,0-.11s.15,0,.15-.08,0,0,0-.07-.11.11-.19,0,.12-.12.19-.08,0-.07,0-.11,0-.15,0-.23a.13.13,0,0,1,0-.11c0-.08-.07-.34,0-.42-.07,0-.07-.22,0-.26s-.07-.08-.07-.15.07,0,.07-.08,0-.07,0-.11a.09.09,0,0,0,.08-.08s-.08,0-.08,0,0-.12-.07-.23,0,0,.07,0-.07,0-.07-.11.07-.11.07-.19c-.19,0-.19-.07-.37-.07,0,0,0-.08,0-.12-.19,0-.34-.15-.53-.19,0-.11-.15-.11-.26-.11s-.15-.07-.27-.15c0,.11,0,.19,0,.3s0,.19,0,.23,0,.3.07.41,0,0-.07.08a.21.21,0,0,1,0,.19s-.12,0-.12,0a.51.51,0,0,0,0-.42h.08c0-.07-.08,0-.08-.07s.08-.19,0-.23c.12-.07,0-.19.08-.3-.12,0,0-.19,0-.26s-.08,0-.08,0,0,.08,0,0m3.06-2s.19.08.19-.07c-.08,0-.23,0-.19.07m1.17.12c.07.07.26,0,.37.07s0-.07,0-.11,0,0,.07-.08c-.19-.11-.3.08-.41.12m-1.21-.12c-.08,0-.19.08-.23,0,0,.12.19,0,.23,0m-.49.08s0,0,.08,0,.07,0,.07-.12-.11,0-.15.08m-.26,0s.11.07.11,0-.08,0-.11,0m.56.22c-.07-.07-.19,0-.26,0s-.08,0-.12,0-.15,0-.18.11.07.23,0,.27c.11-.08.3-.19.41-.08a1,1,0,0,0-.19.38c0,.11,0,.26.08.34s-.08,0-.08.07a.15.15,0,0,0,.12,0,.49.49,0,0,0,0,.34c.11,0,.11-.19.26-.19a.63.63,0,0,1,.19-.26,1,1,0,0,1,.34-.45s0,0,0-.12.07,0,.11-.07a.44.44,0,0,1,.27-.34c0-.15,0-.23.07-.34-.41.11-.68.19-1,.3m1.4-.15c0,.15-.08.15-.12.26.12,0,.12-.11.15-.18h.12c0-.12-.08-.08-.15-.08m-.49.34a0,0,0,0,0,0-.08s0,0,0,.08m-3.66.08s.07,0,.07,0l-.07,0Zm4,0c-.08.07-.12.19-.23.26a0,0,0,0,1,0,0c-.08.07-.12.19-.23.23s-.11.11,0,.22-.22.08-.19.19c-.18,0-.11.23-.3.23,0,0,0,.07,0,.11a.14.14,0,0,0-.11,0c0,.22-.34.22-.41.45h0c0,.07-.08.11-.12.19s.08.07,0,.11c.12,0,.12.23.08.34a.08.08,0,0,1,.07.08s-.07,0,0,.07a.14.14,0,0,1,.11,0s0,.15,0,.19H163s0,.11,0,.15.07,0,.07,0,0,0,0,.07.08,0,.08.08,0,.07,0,.07-.07,0-.11-.11-.08,0-.08,0a.15.15,0,0,1,.08.19.07.07,0,0,1,.07.07s0,.08,0,.11,0,0-.12,0,0,.15,0,.22c.15.08.11.3.08.42a.35.35,0,0,1,0,.37.17.17,0,0,0,.07.15.23.23,0,0,1-.07.19s0,0,0,.08c.19,0,.42,0,.3-.23,0-.07,0-.15,0-.22s.08-.19,0-.34.08,0,.08-.12,0-.18,0-.26,0,0,0,0,.08-.15.11-.19,0-.3.08-.34c-.08-.11.11-.11,0-.26,0,0,0,0,.07,0,0-.19,0-.26,0-.37s.08,0,.08-.08-.08-.08-.08-.11,0,0,0-.08a.09.09,0,0,1-.08-.07s.08,0,.12,0a.5.5,0,0,1-.12-.45.09.09,0,0,1-.07-.08.31.31,0,0,1,.22-.11s-.07,0-.07-.08.23,0,.26-.11-.07,0-.07-.08a.15.15,0,0,0,.07-.11c.08,0,.08,0,.12.11s0,.12,0,.15,0,.23.11.23,0,.08,0,.08a.17.17,0,0,1-.15-.15s0,0-.07,0,0,.19,0,.19a.19.19,0,0,0,.08.18s0,0,0,0,.11.12,0,.15.15.15.11.27c.12.07.15.19.23.3h-.11c0-.08-.12-.08-.08-.15s-.08,0-.08-.08.08,0,0-.11,0,0-.07,0c0-.15-.19-.27-.15-.42s-.08,0-.08-.07,0-.12,0-.19c-.19,0,0,.19-.11.26a.61.61,0,0,1,.11.38.79.79,0,0,0,.19.11.12.12,0,0,0-.11,0c.07,0,.11.08.07.15l.3.23c0,.07-.07.07-.07.11.07.19.34.11.37.38.08,0,.08.07.08.11s-.19-.07-.34-.07-.11-.12-.19-.19,0,.07-.07.11.11,0,.11,0,.11.19,0,.3c0,0,.08.07.11.07s0,.08,0,.08,0,.11,0,.11-.11,0-.07-.11h-.12c0,.08.08.08.08.15s0,.08-.08.08,0-.08-.11-.08.08.15,0,.15,0,0-.07,0l-.08.08c-.08-.08-.19-.11-.26-.23,0,.23.34.38.6.34,0,0,0,0,.07.08a.38.38,0,0,0,.19,0c.08.11.23,0,.34,0a.27.27,0,0,1,0-.19s-.07,0-.07,0v-.18s.07-.08,0-.08-.07,0-.07,0,0-.11,0-.19.08-.07.08-.11-.08,0-.08-.08,0,0,0-.07-.08-.23,0-.27-.08,0-.08-.07a.79.79,0,0,1,.08-.3s-.08,0-.08-.08,0-.3.08-.49c.11,0,.07-.11,0-.19a.21.21,0,0,0,.07-.15.08.08,0,0,1-.07-.07c.11-.08,0-.31.07-.46-.11-.15.11-.45,0-.56,0-.15.08-.23,0-.38.08,0,.08,0,.15,0s0-.07.08-.11-.15-.19-.08-.26-.11,0-.11,0c-.15.19-.34.26-.45.19m-.46.15s.08,0,.08-.08H164s0,.08,0,.08m-.34.53c.08,0,.12,0,.12-.08s-.12,0-.12,0,0,.08,0,.08m-.45.56s.08,0,.08-.07-.12,0-.08.07m-.3.23c0,.07.11.07.11,0s-.07-.08-.11,0m-1.58.11c.15,0,0-.11,0,0m-.12.08h.08s0,0-.08-.08Zm2.6.07s.08,0,0,0,0,0,0,0,0,0,0,.07m-2.78,0s0,0,.07,0-.07-.08-.07,0m.3.11c0,.08.11.12.19.12v0a.14.14,0,0,0-.19-.08m.9.61c0,.07,0,.07.11.11s.12-.08.12-.15-.15,0-.23,0m0,.33c.08.08,0,.08,0,.16a.18.18,0,0,0,.19,0s0-.15.08-.19a.12.12,0,0,0-.23,0m.3.38s0,.08-.11.12c.08,0,0,.15,0,.18s-.15.12-.19,0,0,0,0-.07,0-.12-.08-.12,0,.08-.07.12,0,0,.07.07a.08.08,0,0,0-.07.08c.07,0,.15.07.22,0,0,.15.08.26,0,.41a.22.22,0,0,1,0,.3c0,.08.08.19,0,.23s-.07.11-.18.19h.07s0-.12.08-.12.11,0,.11.08c.15,0,.19,0,.3,0s0,0,0-.08-.08,0-.08-.07-.11-.34,0-.53c-.11,0-.07-.22,0-.26s0-.08-.07-.12,0,0,0,0,0-.19-.12-.23c0,0,0-.07,0-.07s0-.16,0-.19,0-.12-.11-.15c0,.18.07.15.07.22m-.3,1.06h.11c0-.12,0-.12,0-.23h-.07s0,.15,0,.23m-2.07,0c0,.08.07.08,0,.15s.11.11.15,0-.08,0-.08,0,.08-.11,0-.15-.08,0-.15,0m3.69.26h-.07c-.12,0-.19-.15-.3-.15s0,.19-.08.3c.08.23.41.12.64.16a.17.17,0,0,1,0-.19c-.07,0-.07-.12-.19-.12m-3.65.34c.07,0,.07,0,.11-.11-.11,0,0-.19-.11-.23a1,1,0,0,0,0,.34m3.95-.11c.08,0,0,.19,0,.15s.18.11.18.23a1.14,1.14,0,0,1,.38,0c0-.08,0-.08,0-.15s-.08-.15,0-.19-.11-.08-.15-.15-.19,0-.3,0a.2.2,0,0,1-.08.15m-1.84.23s0,0,.07,0,0,0-.07-.08Zm.11,0c.08,0,0,.11,0,.19s-.08,0-.08,0,0,.12,0,.16a.15.15,0,0,1,0,.18s0,0,.08,0,0,0,0,0a.14.14,0,0,0,0-.11c.07,0,.07-.11.19-.11,0-.15.11-.19.18-.3-.11,0-.3-.12-.41,0m-2.22,0s.07,0,.07,0l-.07,0Zm2.63.3c.12,0,.16.07.23.11s.11-.19.11-.26-.41-.12-.34.15m-.22.41c-.08,0-.11.08-.15.12s.07,0,.07,0,0,.12,0,.19.11,0,.15,0c.11-.19.34-.23.37-.42s-.52-.3-.41,0m-3.85.23s0,0,0-.11a.17.17,0,0,0-.19.07c0,.08.19.15.22,0m.34,0s.08,0,.08,0-.08,0-.08,0m1.62,0s0,0-.07,0,0,.08.07,0m-2,.38s0,0,0,0,.15,0,.15-.07,0-.08-.11-.08a.5.5,0,0,1-.08.12"></path><path class="cls-8" d="M166.1,140.88c.16,0,.31,0,.34.15s0,0,0,.07-.12.15-.19.23-.19-.08-.23-.19,0,0,.08,0,0,0,0-.07.07-.12.07-.15m0,.22s.12.08.15,0-.19-.23-.15,0"></path><path class="cls-8" d="M168.25,141.1c.12,0,.15.12.19.15s0,0,0,.08a.33.33,0,0,0,.16.15c0,.11.11.11.18.19s0,.07.08.11,0,0,0,.11.08,0,.08,0,0,0,0,.08a.18.18,0,0,1,.07.15c-.11,0-.11.15-.15.26s-.15,0-.15.15c-.19,0-.22-.11-.3-.22s-.07,0-.15,0,0,.34.11.38-.11,0-.18,0,0,0,0-.07-.08,0-.15,0-.08-.15,0-.19,0,0-.08,0,0-.11,0-.15c.26-.07.53,0,.72-.15,0-.11,0-.15,0-.22a.58.58,0,0,0-.19-.27.59.59,0,0,0-.18,0v.08c-.15.07-.27.18-.46.26,0,.07.08,0,.08.07s-.11.12-.19.12-.11-.15-.08-.23a.33.33,0,0,1-.22-.11c0-.15.22-.08.34-.11s.15-.16.19-.19.18-.12.3-.15,0,0,0-.08h0c.11-.07,0-.11.07-.19"></path><path class="cls-8" d="M157.09,142.5s.19,0,.19,0,0,0,0,0a4.39,4.39,0,0,1,.3.45v0s0,0,.08,0,0,.12,0,.12a.13.13,0,0,0,0,.11s0,0-.08.08,0,0,0,.11a.79.79,0,0,0-.15.19.46.46,0,0,0-.3.11c-.08,0-.19,0-.26,0s.11.07.11.11h.11V144c.15,0,.19.19.19.37a.13.13,0,0,1-.11,0c0-.07,0-.07,0-.11v-.08c-.11-.11-.26-.07-.42-.15a.58.58,0,0,0-.22.34c0,.08.07,0,.11.08s0,.11.11,0c.16.11.31,0,.5.11a.19.19,0,0,0-.08.15h-.08s0,0,0,0,.07,0,.07.11-.22,0-.26-.11a.58.58,0,0,1-.49-.19h-.12c-.07-.08-.18,0-.26-.08s0,.15-.11.15-.08-.07-.12-.11,0-.19.16-.19a.3.3,0,0,0-.08-.19l0,0c.19,0,.26.15.37.22s0,0,0-.07a.5.5,0,0,1,0-.34c.08,0,.15,0,.12-.12l.22-.11v-.07a.19.19,0,0,1-.07-.12s0-.07-.12-.07,0-.08,0-.08-.26-.22-.15-.38-.08-.07-.08-.15a1.68,1.68,0,0,0,.27-.34c.3,0,.45-.18.56,0m.27.41c0-.15-.3-.07-.34-.22s-.19,0-.34,0c0,.12-.19.12-.08.23s-.07,0-.07.07.07.12.11.19a1.47,1.47,0,0,0,.83.27c0-.12.11-.15.11-.3s-.11-.16-.15-.23h-.07Z"></path><path class="cls-8" d="M169.38,143.14v.07s0,0,.08,0a.51.51,0,0,1,.11.34c-.07,0-.07.19-.22.15s0,.08,0,.08a.28.28,0,0,0-.19,0c-.07-.08-.19,0-.26,0a1,1,0,0,1-.19.15V144c0,.08.15.12.22.19.34,0,.72-.07.8-.41.11,0,.15,0,.18.15a0,0,0,0,0,0,0s0,.12.07.12,0,.11.08.11-.19,0-.3,0c-.19.19-.57.15-.72.34-.08,0-.08,0-.15-.08s.07,0,.07-.11a1.54,1.54,0,0,0-.3-.42s.12-.15,0-.15c0-.34.23-.45.53-.37,0,0,0,0,0,.07s.11,0,.15,0c.11-.08.23-.19.11-.34a.28.28,0,0,0-.19,0v.11c-.11,0-.18,0-.18-.15.15,0,.18-.15.33-.11"></path><path class="cls-8" d="M170.29,145.1s-.11,0-.15,0-.08-.08-.08-.15a.51.51,0,0,0-.26,0s0,.07.07.07a.34.34,0,0,0,0,.19s0,0,.07,0a.2.2,0,0,0,.08.15h.07c0-.08.19-.11.15-.23s.12-.07.19,0,0,.18-.15.18,0,0,.08.08.07.11,0,.19a.26.26,0,0,0-.33,0v-.08c-.08,0-.08,0-.08.08a.52.52,0,0,0-.23.07c0-.11-.07-.11-.15-.15s0-.11,0-.19a.13.13,0,0,1-.07,0c0-.08,0-.15,0-.23-.41,0-.34.49,0,.49,0,0,.08,0,.08,0s0,.08,0,.11a.16.16,0,0,1-.19,0c0,.08-.12.11-.15.19-.12-.08,0-.19,0-.26s-.08-.08-.08-.15-.07,0-.11,0,0-.08,0-.12,0-.07,0-.15a.77.77,0,0,0,.15-.3c.11,0,.15-.11.26-.15,0-.26.27-.07.34,0s.15,0,.27,0a.78.78,0,0,1,.26.34m-.64,0s0,0,0,.08h.08c0-.08,0-.23-.12-.19s.08.07.08.11"></path><path class="cls-8" d="M155.93,144.91c0,.11,0,.19-.08.26s0,0,.08,0,0,.08,0,.11,0,.08,0,.16a0,0,0,0,0,0,0s.07,0,.11.08,0,.07,0,.07.19.08.23.15c.19.08.45.12.56-.07a1,1,0,0,1,0-.34s-.07,0-.11,0v-.07a.17.17,0,0,0-.19,0v0c-.15,0-.3.15-.45,0,0-.08.15-.08.15-.19.41-.11.56.11.75.41,0,0,0,.08-.07.12s0,0,0,0a.8.8,0,0,0,0,.31c-.15,0-.19.18-.3.26s-.15,0-.19,0-.23-.23-.38-.26c0-.08,0-.08-.07-.12s0-.11-.08-.15,0-.11,0-.19h-.08c0,.08,0,.15,0,.23s.16.19,0,.3a.38.38,0,0,1-.26-.26s0,0,0-.08,0-.11-.12-.15,0-.11.08-.11a.69.69,0,0,1,.22-.61c.08.08.12.08.16.08"></path><path class="cls-8" d="M156.42,146.49a.56.56,0,0,1-.08.42c-.11-.08-.19,0-.3,0s-.08-.19-.19-.19c0-.15,0-.26.15-.3s.3,0,.42.07"></path><path class="cls-8" d="M170,147.36a.35.35,0,0,1-.3.19c0,.11-.08.15-.08.22s0,0,0,.08,0,.08-.07.11h.07v.12s.11,0,.11.07a.23.23,0,0,1,.15,0s0,0,0-.07,0,0,.08,0,0-.11,0-.15,0-.15.12-.19,0,0,0-.11a.43.43,0,0,1,.49-.27c.07,0,0,.12.15.12s0,.07,0,.07,0,.08,0,.12,0,.07,0,.11.07,0,.07,0-.07.07-.11.15,0,.07.11.11,0,.08,0,.15-.26,0-.34,0,0,0-.07,0,0-.07,0-.11c.23,0,.3-.3.34-.45s-.11-.12-.19-.15,0,.15-.15.15c0,.15-.15.22,0,.34s0,0-.07.07-.12.19-.15.3c-.38.08-.61-.26-.57-.64,0,0,0,0,.08-.07s0-.08,0-.15-.12-.08-.16-.16c.19.08.46-.07.57.08"></path><path class="cls-8" d="M155.47,146.83c.3,0,.3.27.61.34.11.15.26.15.45.23,0,.11.19.15.19.3h-.15s0,0,0,0-.11,0-.15.07a.14.14,0,0,1-.11,0s0,.08-.08.08,0,0-.11,0a.14.14,0,0,1,0,.08.39.39,0,0,0-.23.07c-.19,0-.26.12-.37.23s-.15,0-.19,0V148s.07,0,.07,0a.51.51,0,0,1,0-.3c.27,0,.49,0,.76,0a.73.73,0,0,0,.11-.15s-.08,0-.11,0-.08,0-.08-.11-.11,0-.11-.08-.15,0-.23,0-.11.11-.22.07-.08-.07-.08-.15.08-.07.08-.15,0,0,0,0,0-.07.07-.07c-.11,0-.15,0-.15-.08"></path><path class="cls-8" d="M170.74,148.49c0,.15-.07.19-.11.34a.09.09,0,0,0,.07.08s-.07,0-.11,0,0,0,.08.08v.15s-.08,0-.12,0-.07-.12-.11-.15c-.3,0-.6-.15-.79,0h-.15c0-.07,0-.18,0-.22s-.08-.11-.08-.23a.5.5,0,0,1,.34.08c.19,0,.3,0,.45,0s0-.08.08-.08.07,0,.11,0,.11-.27.3-.23"></path><path class="cls-8" d="M156.75,148.94c-.07.12-.11.23-.26.27v.07c-.15,0-.15.15-.3.15,0,0,0,.08,0,.15.11.12.3,0,.38-.07s.11,0,.15,0a.2.2,0,0,1-.08.15c0,.07.08.07.08.11s0,0,0,.08.07,0,.07,0-.11,0-.18.08v-.08c-.19-.11-.49,0-.8,0a0,0,0,0,0,0,0s0,0-.08,0-.15.18-.26.18c0-.18.19-.41,0-.56,0,0,0-.08,0-.08s-.08,0-.08-.07a.19.19,0,0,1,.08-.15.29.29,0,0,1,.18-.3c.27-.08.34.11.49.22s.08-.15.19-.19.27-.07.45,0m-1,.23c-.11,0-.11.19-.26.23s.08.18.15.26.19,0,.3,0,.08-.07.08-.11,0,0,0-.11-.11-.23-.23-.23"></path><path class="cls-8" d="M169,149.7s0,.11.11.11-.07.19-.11.3-.08,0-.08,0c-.15.12-.26-.07-.26-.22,0,0,0,0,.07,0s-.07,0,0-.07a.66.66,0,0,1,.3,0m-.19.3c.11,0,.26-.08.23-.19s-.31,0-.23.19"></path><path class="cls-8" d="M170.67,149.47s-.08.08-.08.11,0,.16-.07.23a.24.24,0,0,1,0,.3s.07,0,0,.08,0,.07-.08.07,0,.19,0,.3c-.15,0-.19-.07-.37-.07,0-.08.07-.23.22-.23a.17.17,0,0,1,0-.19c-.11,0-.22,0-.34,0s-.07,0-.07-.07c-.19,0-.45.22-.49-.08,0,0,0,0,.07,0s0-.11,0-.15-.07-.07-.11-.11v-.15c.07,0,.23,0,.19.15.19,0,.34.19.53.08,0,.11.18.11.26,0s0-.07,0-.11,0-.11-.15-.11,0-.08-.08-.12.08,0,.12-.11c.26.08.41,0,.49.15"></path><path class="cls-8" d="M157.4,150.34c0-.08-.08-.15-.15-.15s0,.11,0,.15.15,0,.19,0,0,.07,0,.07-.07,0-.11.12.08.07.19.07,0,.08,0,.12l-.12.22c0,.08.08.08.15.11v.08c-.07,0-.26,0-.3.08a.36.36,0,0,0,.19.07,0,0,0,0,0,0,0s0,0-.08,0,.12-.11.15-.07-.07.15-.11.3,0,0,.11,0,.08.11.08.19-.08.15-.15.19.11,0,.19.07a.4.4,0,0,1,.07.19c-.07,0,0,.12-.07.15h0s0-.07-.08,0,0,.07-.07.07-.11-.07-.19-.07,0-.15,0-.23a.45.45,0,0,0,.11-.15s-.15,0-.18-.08,0,0,0,0-.07,0-.11-.08.11-.08.15-.15a.36.36,0,0,0-.19-.15c0-.11.08-.19,0-.23a0,0,0,0,1,.08,0c0-.07,0-.07-.08-.15a.14.14,0,0,1-.11,0c0-.08,0-.12,0-.19s.11-.08.15-.15-.23-.12-.27-.23,0,0,.08,0,0-.07-.08-.11c.15-.19.38-.08.42.15.07,0,.07,0,0,0m-.15.38s.11.11.18,0-.15-.15-.18,0m.15.94s.11,0,.15,0,0-.08,0-.12c-.12,0-.12,0-.15.12m.11.38s0,.07.07.07.08,0,.16-.07-.19-.08-.23,0"></path><path class="cls-8" d="M169.27,150.19h.08c0,.11.15.19.19.34.11,0,.18,0,.18.15.15,0,.12.11.19.15s0,0,.08,0,.11.07.19.11.15-.07.15-.19.07,0,.11,0,0,0,0,.12l-.12,0s0,0,.08,0a1.43,1.43,0,0,1-.15.11c.07.12,0,.27-.11.31s0,0,.07.07a.79.79,0,0,0-.11.19c-.08,0-.11,0-.11-.08a1.56,1.56,0,0,1-.72-.07.37.37,0,0,1-.34,0c0-.08,0-.11,0-.19.15,0,0-.15.11-.23s-.07,0,0-.07.19,0,.27.07l0,0s.12.07.19,0a1.1,1.1,0,0,0,.12-.33s-.08,0-.12,0c0-.19-.3,0-.37-.15,0,0,0,0,.11,0s.07-.19,0-.3m.64,1a1.3,1.3,0,0,0,.15,0s.08,0,.12-.07-.08-.08-.08-.15c-.15,0-.07.11-.19.19m.27.18s0,0-.08,0a0,0,0,0,0,.08,0"></path><path class="cls-8" d="M156.87,151.47c0,.07,0,.07,0,.11s.08,0,.11.08c0,.22.12.38.15.6,0,0-.18,0-.18-.07-.16,0-.19.07-.31.11s-.18,0-.3.07,0,.08-.11.08-.15.11-.26.15,0,0,0-.07a0,0,0,0,1,0,0l-.23-.34c.07-.08.26,0,.38,0a.29.29,0,0,1,.26,0c.11-.11.38-.08.49-.11s0-.08,0-.16c-.19-.11-.49-.11-.57-.37h.08s0,0,.08.07a.73.73,0,0,1,.45-.11m-.83,1c0-.08,0,0,.07,0s0,0,0,0,0,0-.07,0-.12,0,0,.08"></path><path class="cls-8" d="M156.83,152.64c.11-.08.23.07.3,0s.27.11.19.3,0,0,.08.11-.08,0-.12,0,.08,0,.08.11-.23.19-.27.38-.37.19-.56.07a.46.46,0,0,1-.49-.45c.07-.26.26-.38.41-.6h.27c.07-.11.07,0,.11,0m-.45.38s0,0-.08,0c0,.15-.07.22-.11.34.15.15.38,0,.56.07,0-.11.23-.11.34-.19s.08-.22.16-.26c-.12,0-.23-.08-.27-.19-.11.08-.19,0-.3,0,0,.11-.26.11-.3.27"></path><path class="cls-8" d="M168.63,152.79c.11.11.15.23.34.26,0,0,0,.08,0,.12.26.11.56,0,.71.11-.07.11-.18.19-.26.3s.08.08.08.15,0,0-.08,0l-.11-.11v-.08h-.15v0a3.34,3.34,0,0,1-.57-.22c-.07,0-.07,0-.15,0v-.07s-.08,0-.08,0,.23-.15.23-.3-.07-.15,0-.19"></path><path class="cls-8" d="M158.23,153.92s0,0,0,0a.24.24,0,0,1,.34.22c-.11,0-.11.12-.15.19a.66.66,0,0,0-.3-.07c0-.08,0-.08,0-.15s.08-.15.08-.23m0,.15v.11c.08.08.15,0,.19-.07a.16.16,0,0,0-.19,0"></path><path class="cls-8" d="M168.25,153.43c.08.19.34.15.38.34a1.85,1.85,0,0,0-.45.11V154s0,0-.08,0,0,0,0,0,0,0,0,.08,0,0,0,.07.31.15.42,0,.15-.15.19-.26.19,0,.19-.08.15.08.26.08.08.07.11.11a.18.18,0,0,0,0,.19c0,.07,0,.19-.11.23s0,.07.07,0-.15.08-.11.19-.11,0-.15.11,0,0,.08.08-.12,0-.19,0-.19-.12-.27-.19,0,0-.07,0c.07-.19.41,0,.53-.19,0,0,0,0,0-.07s.11,0,.11-.08-.07,0-.11,0,0,0,0-.11a.32.32,0,0,0-.46.26c-.07,0-.11.08-.11.12s-.3.07-.38-.12H168v-.19c-.08,0-.11,0-.11-.07s.07,0,.11-.08,0-.11,0-.26.11-.19.19-.23-.08-.11-.12-.11.08-.15.15-.15"></path><path class="cls-8" d="M157.55,153.58c0,.08-.08.08-.08.11s.15.15.27.19c0,.08,0,.12-.08.19s0,0,.08,0a.47.47,0,0,1-.19.45c0,.11-.08.11-.08.19-.3,0-.41-.11-.64-.08,0,0,0,0,0-.07s-.11,0-.15,0,0-.11-.08-.11,0-.15-.07-.19,0-.15-.08-.15,0,0,0-.11.12,0,.12,0c.15,0,.18-.12.3,0-.08.08-.15.15-.12.26s0,0-.07,0,0,.11,0,.15c0,.19.41.15.53,0,.3,0,.37-.26.34-.53,0,0,0,0-.08,0v-.07c-.19,0-.26.15-.45.07,0-.07,0-.07.11-.11s.27-.22.42-.15m.07.87s0,0,0-.08,0,.08,0,.08"></path><path class="cls-8" d="M157.77,154.82s0,0,.08,0,0,.08-.08.12,0,.07,0,.11c.12.07,0,.22.12.34s0,.11,0,.11a.23.23,0,0,0-.08.19.3.3,0,0,1-.49-.11h-.11c0-.19-.08-.23-.12-.38a.5.5,0,0,0-.26-.08c.08-.11.26-.07.3-.18s.15,0,.15,0,0,0-.07,0,0,.08,0,.15-.08,0-.12.08,0,.15.15.11,0,0,0,0,.11,0,.11.15a.17.17,0,0,0,.22-.11c0-.08-.07-.08-.07-.12s0,0,0-.07-.08-.27-.08-.42a1.28,1.28,0,0,1,.38-.26,1.77,1.77,0,0,0,.38.15s0,.11,0,.11.08.19.08.34a.08.08,0,0,1,.07.08c0-.08.12,0,.15,0s-.15,0-.22.15c0-.08-.11,0-.15,0s0-.08,0,0a.24.24,0,0,1,.11-.23s-.07-.07,0-.11-.08,0-.08-.08,0-.07,0-.19a.66.66,0,0,1-.26,0s-.08,0-.12,0"></path><path class="cls-8" d="M158.45,155.81c0,.11-.11.22,0,.3-.11.22-.34.07-.52,0,0,0,0,0,.07,0a1.49,1.49,0,0,0,0-.19c0-.19.38-.19.53-.07"></path><path class="cls-8" d="M167.57,155.05s0,.08.08,0c0,.15.11.19.23.26s0,0,0,.08a3.2,3.2,0,0,1,.45.3c.07,0,.15-.15.23,0a.14.14,0,0,1-.16.15c0,.34-.49.15-.71.3,0,.19.19.34.15.57h-.08c0,.08,0,.11,0,.15a.28.28,0,0,1-.19-.26c-.15,0-.15-.23-.3-.19v0c-.12,0-.19,0-.19-.11s0,0-.12,0-.07,0-.07-.12-.11,0-.15,0,.15-.11.19-.26-.08,0,0,0,.11,0,.11-.11.11.11,0,.11.07,0,.11,0c.08.23.3.3.42.45h.15a.19.19,0,0,1-.12-.07s0,0,.08,0-.08,0-.08,0a.13.13,0,0,0,0-.19c0-.11.07-.07.11-.15.08.08.19,0,.23-.07s-.15-.08-.12-.19c-.11.11-.15,0-.26-.08s0,0,0,0-.08,0-.08-.07a.24.24,0,0,1-.15,0c.08-.16.3-.16.27-.38,0,0,0,0,0,0"></path><path class="cls-8" d="M160.52,156.6s0,.11.08.11-.08.11,0,.23a1,1,0,0,1-.3,0s0-.08-.07-.12.07-.19.15-.26.07.07.18,0m-.22.22s.11,0,.15,0-.19-.12-.15,0"></path><path class="cls-8" d="M159.13,156.33s0,.08.08.12-.27.11-.27.3c-.07,0-.11,0-.15,0-.11-.16-.26-.12-.45-.16v0c0,.12.22.12.19.27s0,0,.07,0,.08.12.08.23.07,0,.15,0a.14.14,0,0,0,0,.11c-.23,0-.26-.15-.45-.19,0-.15-.11-.18-.19-.26s0-.07,0-.07-.19-.12-.23-.23-.11,0-.11-.11a.27.27,0,0,1,.19,0s0,0,0,.07.27.08.42,0,0-.07.07-.11.16,0,.19.11,0,0,0-.07.15,0,.19-.08v-.19a.46.46,0,0,0-.38,0V156c.08,0,.12,0,.19,0,.08-.22.45.08.34.3"></path><path class="cls-8" d="M165.77,156.41c0,.07,0,0,.07.07s0,.23,0,.31-.23.15-.34,0,0,.08,0,.12a.13.13,0,0,0,0,.22.46.46,0,0,1-.45,0c-.08-.26.15-.41.37-.33,0-.08,0-.16,0-.19s0,0-.07-.12c.18,0,.15-.11.34-.07m-.16.15s0,.15.08.15,0-.08,0-.11-.08,0-.12,0m-.37.3a.12.12,0,0,1,0,.15c.07,0,.15,0,.18,0s0-.07,0-.11-.15-.08-.22,0"></path><path class="cls-8" d="M166.67,156.18s0,.08,0,.08,0,0,0,0a.53.53,0,0,0,.15.37s0,0,0,.08a.51.51,0,0,1,.19.22s.11,0,.11.12,0,0-.07.07.26,0,.45,0c0,.08-.08.08-.08.15-.26,0-.3.26-.49.38,0,0,0,0,0,.11s-.07.11-.18.11,0-.07,0-.11-.07-.07-.11,0a.65.65,0,0,0-.34-.37c-.07-.27-.41-.27-.56-.46a.38.38,0,0,1,.3-.11.27.27,0,0,1,0-.15h.08v.08c.19,0,.11.3.3.33s0,0,0,0,.08,0,.11,0,.08-.15.16-.22c-.08-.15-.27-.23-.38-.38s.07,0,.15,0c0-.15.07-.3.15-.34m0,1.17c.08,0,.12.08.19,0s0,.11.08.11a.29.29,0,0,0,.26-.11s-.08,0-.08,0a0,0,0,0,0,0,0s-.07-.07-.11-.07,0,0,0-.08a.37.37,0,0,0-.19-.07c0,.07-.15.11-.19.26"></path><path class="cls-8" d="M159.85,157c.07,0,.15,0,.18,0s0,.11.08.15-.08.08-.11.11,0,0,0,0,0,0,.08,0,0,0,0,0,.19,0,.23.11.07-.07.19,0,.07.07,0,.11-.22,0-.34-.08-.07,0-.11.08,0,0,.08.07,0,.12,0,.19a.74.74,0,0,1-.19.15h-.12c-.11,0-.15.15-.07.31a.75.75,0,0,1,.34.07c0,.19-.27,0-.38,0s-.26-.15-.3-.3.19-.34.38-.27a.19.19,0,0,0,.07-.15s0,0-.07,0,0-.15,0-.19a.55.55,0,0,0-.49.15c0,.08,0,.12,0,.16s-.07.11-.19.11,0-.11-.07-.11a.14.14,0,0,1,0-.08c-.12-.08-.27,0-.31-.19a1.5,1.5,0,0,0,.57-.15.69.69,0,0,0,.41-.11c0-.08,0-.12,0-.19s-.07.07,0,0"></path><path class="cls-8" d="M163.62,158a.43.43,0,0,1,.22,0c0,.07,0,.07.08.11,0,.3-.34.34-.49.12v-.12c.07,0,.15,0,.19-.15m.07.34s.11,0,.11-.11-.07,0-.15,0,0,.15,0,.15"></path><path class="cls-8" d="M166.33,157.46a0,0,0,0,1,0,0s.08,0,.12.08,0,.07,0,.11,0,0,.07.08c0,.3,0,.67-.34.75-.07.07-.07.15-.11.23-.11-.12-.15-.31-.3-.34,0-.15-.26-.08-.26-.27a.15.15,0,0,0-.12,0,.37.37,0,0,0-.07-.26,1.49,1.49,0,0,1,.15-.45c.11,0,.11-.11.19-.15s.07,0,0,0,.16-.08.27,0a.56.56,0,0,1,.26.15c.12,0,.15.07.19.07m-.75,0c-.08.15-.15.34,0,.46V158s.15,0,.15.11.19,0,.22,0,.08-.12.08-.15,0-.12,0-.15-.19-.08-.22-.16.07,0,.07-.11l-.11-.11a.15.15,0,0,1-.15.07m.68.42c-.12-.11-.23,0-.19.19-.12,0-.12.22-.27.19s0,.07,0,.11a1,1,0,0,1,.34,0s.12-.08.08-.19,0,0,.07,0,0-.19,0-.26"></path><path class="cls-8" d="M163.62,159c0,.08,0,.11.07.11s.11.27,0,.34a.45.45,0,0,1-.15.38s0,0,0,.08-.19,0-.19.19h.3c.08,0,.08-.16.19-.16s0,.12,0,.16a.1.1,0,0,0-.11.11c-.07,0-.15,0-.15.07s-.15,0-.19.08a.59.59,0,0,0-.26,0c0-.11-.11-.11-.23-.15s-.15,0-.22.08,0,0,0-.08.22-.11.3-.15.49,0,.38-.26l.11-.12a.69.69,0,0,1-.08-.49s-.07,0-.07,0v-.07s-.11,0-.08-.08c-.15,0-.22,0-.3.08s0,.07,0,.07,0,.08-.11.08c0,.15.11.22,0,.34s.07,0,.07,0,.12.11.19.18c-.15.15-.41,0-.45-.15s0,0,0-.07-.08-.34,0-.42,0,0,0-.07.18-.08.22-.15.23-.12.45-.08.16.11.31.15m-.34,0s0,0,.07,0v0c-.07,0-.07,0-.07,0"></path><path class="cls-8" d="M164.86,159.5c-.07.3-.34.23-.57.3,0,0,0,.08,0,.11s-.07,0-.15,0c0-.18-.11-.22-.11-.37s.07,0,.15,0c.08.15.3,0,.45.08s.12-.19.19-.08"></path><path class="cls-9" d="M110.08,79.7h-3.89V57.41h3.89ZM97.51,57.41H93.62V79.7h3.89Zm6.22,0H99.84V79.7h3.89Z"></path><path class="cls-2" d="M100.36,15.68a53,53,0,1,0,53,53,53.07,53.07,0,0,0-53-53m0,103a50,50,0,1,1,50-50,50.09,50.09,0,0,1-50,50"></path><path class="cls-2" d="M75.35,57A15.48,15.48,0,0,1,90.84,41.47h11.08V26.3c-.52,0-1-.06-1.49-.06a11.81,11.81,0,0,0-1.49.06,42.41,42.41,0,0,0-10.63,83,23.32,23.32,0,0,0,3,.77V88.18H110A7.9,7.9,0,0,0,113.13,73v3.5A4.83,4.83,0,0,1,110,85.07H88.31V106A39.37,39.37,0,0,1,98.94,29.22v9.14h-8a18.47,18.47,0,0,0-.26,36.93V72.24A15.19,15.19,0,0,1,75.35,57"></path><path class="cls-2" d="M100.36,21a47.69,47.69,0,1,0,47.69,47.69A47.73,47.73,0,0,0,100.36,21m0,92.4a35.55,35.55,0,0,1-3.76-.2V93.56H110a13.21,13.21,0,0,0,3-26v3.11a10.2,10.2,0,0,1-3.11,19.9H93.49v22.35A44.71,44.71,0,0,1,100.3,24a37.75,37.75,0,0,1,3.82.2V43.8H90.77a13.16,13.16,0,0,0-.26,26.31v-3a10.18,10.18,0,0,1,.26-20.35h16.46V24.49a44.72,44.72,0,0,1-6.87,88.9"></path><path class="cls-2" d="M86,57a4.9,4.9,0,0,1,4.86-4.86h21.7V31.23A39.35,39.35,0,0,1,102,108V98.88h8a18.5,18.5,0,0,0,3.11-36.74v3A15.48,15.48,0,0,1,110,95.83H98.94v15.23c.51,0,1,.06,1.49.06a12.46,12.46,0,0,0,1.49-.06,42.41,42.41,0,0,0,10.62-83,23.32,23.32,0,0,0-3-.77V49.11H90.84a7.88,7.88,0,0,0-.26,15.75v-3A4.84,4.84,0,0,1,86,57"></path><rect class="cls-10" width="199.55" height="199.55"></rect></g></g></svg> 